<svg width="245" height="60" viewBox="0 0 245 60" fill="none" xmlns="http://www.w3.org/2000/svg">
<path fill-rule="evenodd" clip-rule="evenodd" d="M16.3563 38.7339C10.2515 54.611 7.63758 59.1782 0 60H22.6903C13.9868 59.4937 8.75115 58.6303 16.3565 38.7339H16.3563Z" fill="white"/>
<path fill-rule="evenodd" clip-rule="evenodd" d="M21.5436 25.3617C25.1383 22.7246 26.4049 25.3513 28.6678 31.2363L36.2866 51.0503C38.3307 56.366 39.929 59.8356 43.9901 59.9998H61.809C54.9737 59.4053 53.0716 56.637 51.1243 51.5724L31.2946 0.00195312L21.5435 25.3616L21.5436 25.3617Z" fill="white"/>
<path fill-rule="evenodd" clip-rule="evenodd" d="M38.4365 12.1049L42.6144 22.9701C44.1653 12.9187 51.4772 1.72786 63.0053 1.76768C73.784 1.80478 81.8091 10.5526 84.1447 19.6966C84.1447 12.4478 84.1447 8.75751 84.1447 1.50865C82.9987 11.5052 74.9116 -0.177341 62.943 0.00204946C50.9743 0.181575 43.0363 6.07196 38.4367 12.1049H38.4365ZM54.4171 53.6694C68.7697 61.2186 82.7878 50.424 84.1513 38.0948C83.8529 51.964 75.1614 58.2023 64.8673 58.9826C59.0373 59.0257 56.109 56.8847 54.4171 53.6696V53.6694Z" fill="#ED2939"/>
<path d="M92.8081 0.00195312H91.1064V59.9998H92.8081V0.00195312Z" fill="#ED2939"/>
<path d="M110.167 13.7023L110.438 17.7302H110.167C109.805 16.5244 109.289 15.6565 108.618 15.1265C107.947 14.5964 107.141 14.3314 106.202 14.3314C105.414 14.3314 104.702 14.5323 104.066 14.9342C103.43 15.3303 102.929 15.9652 102.561 16.839C102.199 17.7127 102.018 18.799 102.018 20.098C102.018 21.1697 102.191 22.0988 102.535 22.8851C102.879 23.6715 103.395 24.2744 104.084 24.6937C104.778 25.1131 105.569 25.3228 106.456 25.3228C107.226 25.3228 107.906 25.1597 108.495 24.8335C109.084 24.5015 109.732 23.8462 110.438 22.8677L110.709 23.0424C110.114 24.0967 109.42 24.8685 108.626 25.3578C107.833 25.8471 106.89 26.0917 105.799 26.0917C103.833 26.0917 102.31 25.3636 101.231 23.9074C100.426 22.824 100.023 21.5483 100.023 20.0805C100.023 18.898 100.288 17.8117 100.819 16.8215C101.35 15.8313 102.08 15.0653 103.007 14.5236C103.941 13.9761 104.959 13.7023 106.062 13.7023C106.92 13.7023 107.766 13.912 108.6 14.3314C108.845 14.4595 109.02 14.5236 109.125 14.5236C109.283 14.5236 109.42 14.4683 109.536 14.3576C109.688 14.2003 109.796 13.9819 109.86 13.7023H110.167Z" fill="white"/>
<path d="M113.239 20.8319C113.233 22.0202 113.522 22.9521 114.105 23.6278C114.689 24.3035 115.374 24.6413 116.162 24.6413C116.687 24.6413 117.142 24.4986 117.527 24.2132C117.918 23.922 118.245 23.4268 118.507 22.7279L118.779 22.9026C118.656 23.7006 118.3 24.4287 117.711 25.0869C117.122 25.7393 116.384 26.0655 115.497 26.0655C114.534 26.0655 113.708 25.6927 113.02 24.9471C112.337 24.1957 111.996 23.188 111.996 21.924C111.996 20.5552 112.346 19.4893 113.046 18.7262C113.752 17.9573 114.636 17.5729 115.698 17.5729C116.597 17.5729 117.335 17.87 117.912 18.4641C118.49 19.0524 118.779 19.8417 118.779 20.8319H113.239ZM113.239 20.3251H116.95C116.92 19.8125 116.859 19.4514 116.766 19.2417C116.62 18.9155 116.401 18.6592 116.109 18.4728C115.823 18.2864 115.523 18.1932 115.208 18.1932C114.724 18.1932 114.289 18.3825 113.904 18.7612C113.525 19.1339 113.303 19.6553 113.239 20.3251Z" fill="white"/>
<path d="M122.192 19.2767C123.131 18.1466 124.027 17.5816 124.879 17.5816C125.317 17.5816 125.693 17.6923 126.008 17.9136C126.323 18.1292 126.574 18.4874 126.761 18.9883C126.889 19.3378 126.953 19.8737 126.953 20.596V24.0122C126.953 24.519 126.994 24.8627 127.076 25.0432C127.14 25.1889 127.242 25.3024 127.382 25.384C127.528 25.4655 127.793 25.5063 128.178 25.5063V25.8209H124.214V25.5063H124.38C124.753 25.5063 125.013 25.451 125.159 25.3403C125.311 25.2238 125.416 25.0549 125.474 24.8335C125.497 24.7462 125.509 24.4724 125.509 24.0122V20.7358C125.509 20.0077 125.413 19.4805 125.22 19.1543C125.034 18.8223 124.716 18.6563 124.266 18.6563C123.572 18.6563 122.881 19.0349 122.192 19.7922V24.0122C122.192 24.554 122.224 24.8889 122.288 25.017C122.37 25.1859 122.481 25.3112 122.621 25.3927C122.767 25.4685 123.058 25.5063 123.496 25.5063V25.8209H119.531V25.5063H119.706C120.115 25.5063 120.389 25.4044 120.529 25.2005C120.675 24.9908 120.748 24.5947 120.748 24.0122V21.0416C120.748 20.0805 120.725 19.4951 120.678 19.2854C120.637 19.0757 120.57 18.933 120.477 18.8573C120.389 18.7815 120.269 18.7437 120.118 18.7437C119.954 18.7437 119.759 18.7874 119.531 18.8747L119.4 18.5602L121.816 17.5816H122.192V19.2767Z" fill="white"/>
<path d="M131.145 15.1876V17.8175H133.018V18.4291H131.145V23.6191C131.145 24.1375 131.218 24.487 131.364 24.6675C131.516 24.8481 131.708 24.9384 131.942 24.9384C132.134 24.9384 132.321 24.8801 132.502 24.7636C132.683 24.6413 132.823 24.4637 132.922 24.2307H133.263C133.059 24.8015 132.77 25.2325 132.397 25.5238C132.024 25.8092 131.638 25.9519 131.242 25.9519C130.973 25.9519 130.711 25.8791 130.454 25.7335C130.197 25.582 130.008 25.3694 129.885 25.0957C129.763 24.8161 129.701 24.3879 129.701 23.8113V18.4291H128.432V18.1408C128.753 18.0127 129.08 17.7971 129.413 17.4943C129.751 17.1855 130.051 16.8215 130.314 16.4021C130.448 16.1808 130.635 15.7759 130.874 15.1876H131.145Z" fill="white"/>
<path d="M136.152 17.5816V19.3815C136.823 18.1816 137.511 17.5816 138.217 17.5816C138.538 17.5816 138.804 17.6806 139.014 17.8787C139.224 18.0709 139.329 18.2952 139.329 18.5515C139.329 18.7786 139.253 18.9708 139.101 19.1281C138.949 19.2854 138.769 19.364 138.558 19.364C138.354 19.364 138.124 19.265 137.867 19.067C137.616 18.8631 137.429 18.7612 137.307 18.7612C137.202 18.7612 137.088 18.8194 136.966 18.9359C136.703 19.1747 136.432 19.5679 136.152 20.1154V23.9511C136.152 24.3938 136.207 24.7287 136.318 24.9559C136.394 25.1131 136.528 25.2442 136.721 25.349C136.913 25.4539 137.19 25.5063 137.552 25.5063V25.8209H133.447V25.5063C133.856 25.5063 134.159 25.4422 134.357 25.3141C134.503 25.2209 134.605 25.0724 134.664 24.8685C134.693 24.7695 134.708 24.487 134.708 24.021V20.9193C134.708 19.9873 134.687 19.4339 134.646 19.2592C134.611 19.0786 134.541 18.9476 134.436 18.866C134.337 18.7845 134.212 18.7437 134.06 18.7437C133.879 18.7437 133.675 18.7874 133.447 18.8747L133.36 18.5602L135.784 17.5816H136.152Z" fill="white"/>
<path d="M141.123 20.8319C141.117 22.0202 141.406 22.9521 141.989 23.6278C142.573 24.3035 143.258 24.6413 144.046 24.6413C144.571 24.6413 145.026 24.4986 145.411 24.2132C145.802 23.922 146.129 23.4268 146.392 22.7279L146.663 22.9026C146.54 23.7006 146.184 24.4287 145.595 25.0869C145.006 25.7393 144.268 26.0655 143.381 26.0655C142.418 26.0655 141.593 25.6927 140.904 24.9471C140.221 24.1957 139.88 23.188 139.88 21.924C139.88 20.5552 140.23 19.4893 140.93 18.7262C141.636 17.9573 142.52 17.5729 143.582 17.5729C144.481 17.5729 145.219 17.87 145.796 18.4641C146.374 19.0524 146.663 19.8417 146.663 20.8319H141.123ZM141.123 20.3251H144.834C144.805 19.8125 144.743 19.4514 144.65 19.2417C144.504 18.9155 144.285 18.6592 143.994 18.4728C143.708 18.2864 143.407 18.1932 143.092 18.1932C142.608 18.1932 142.173 18.3825 141.788 18.7612C141.409 19.1339 141.187 19.6553 141.123 20.3251Z" fill="white"/>
<path d="M157.883 24.9209C157.492 25.3287 157.11 25.6228 156.737 25.8034C156.363 25.9781 155.961 26.0655 155.529 26.0655C154.654 26.0655 153.889 25.7014 153.236 24.9733C152.582 24.2394 152.256 23.2987 152.256 22.1512C152.256 21.0037 152.617 19.9552 153.341 19.0058C154.064 18.0505 154.995 17.5729 156.133 17.5729C156.839 17.5729 157.422 17.7971 157.883 18.2457V16.7691C157.883 15.8546 157.86 15.2925 157.813 15.0828C157.772 14.8731 157.705 14.7304 157.612 14.6546C157.518 14.5789 157.402 14.5411 157.262 14.5411C157.11 14.5411 156.909 14.5877 156.658 14.6809L156.544 14.3751L158.933 13.3965H159.327V22.6492C159.327 23.587 159.348 24.1608 159.388 24.3705C159.435 24.5743 159.505 24.717 159.599 24.7986C159.698 24.8801 159.811 24.9209 159.94 24.9209C160.097 24.9209 160.307 24.8714 160.57 24.7724L160.666 25.0782L158.286 26.0655H157.883V24.9209ZM157.883 24.3093V20.1853C157.848 19.7892 157.743 19.4281 157.568 19.1019C157.393 18.7757 157.16 18.5311 156.868 18.368C156.582 18.1991 156.302 18.1146 156.028 18.1146C155.514 18.1146 155.056 18.3447 154.654 18.8048C154.123 19.4106 153.857 20.296 153.857 21.461C153.857 22.6376 154.114 23.5404 154.627 24.1695C155.141 24.7928 155.713 25.1044 156.343 25.1044C156.874 25.1044 157.387 24.8394 157.883 24.3093Z" fill="white"/>
<path d="M162.53 20.8319C162.525 22.0202 162.813 22.9521 163.397 23.6278C163.98 24.3035 164.666 24.6413 165.454 24.6413C165.979 24.6413 166.434 24.4986 166.819 24.2132C167.21 23.922 167.537 23.4268 167.799 22.7279L168.071 22.9026C167.948 23.7006 167.592 24.4287 167.003 25.0869C166.413 25.7393 165.675 26.0655 164.789 26.0655C163.826 26.0655 163 25.6927 162.312 24.9471C161.629 24.1957 161.288 23.188 161.288 21.924C161.288 20.5552 161.638 19.4893 162.338 18.7262C163.044 17.9573 163.928 17.5729 164.99 17.5729C165.888 17.5729 166.626 17.87 167.204 18.4641C167.782 19.0524 168.071 19.8417 168.071 20.8319H162.53ZM162.53 20.3251H166.241C166.212 19.8125 166.151 19.4514 166.058 19.2417C165.912 18.9155 165.693 18.6592 165.401 18.4728C165.115 18.2864 164.815 18.1932 164.5 18.1932C164.015 18.1932 163.581 18.3825 163.196 18.7612C162.816 19.1339 162.595 19.6553 162.53 20.3251Z" fill="white"/>
<path d="M176.761 18.4466V23.7064C176.761 24.452 176.843 24.9238 177.006 25.1219C177.222 25.3782 177.511 25.5063 177.873 25.5063H178.599V25.8209H173.812V25.5063H174.171C174.404 25.5063 174.617 25.4481 174.81 25.3316C175.002 25.2151 175.134 25.0578 175.204 24.8598C175.279 24.6617 175.317 24.2773 175.317 23.7064V18.4466H173.759V17.8175H175.317V17.2933C175.317 16.4953 175.446 15.8196 175.702 15.2663C175.959 14.7129 176.35 14.2673 176.875 13.9295C177.406 13.5858 178.001 13.414 178.661 13.414C179.273 13.414 179.836 13.612 180.35 14.0081C180.688 14.2702 180.857 14.5644 180.857 14.8906C180.857 15.0653 180.782 15.2313 180.63 15.3886C180.478 15.54 180.315 15.6157 180.14 15.6157C180.006 15.6157 179.863 15.5691 179.711 15.4759C179.565 15.3769 179.384 15.1701 179.168 14.8556C178.952 14.5352 178.754 14.3197 178.573 14.209C178.392 14.0984 178.191 14.043 177.969 14.043C177.701 14.043 177.473 14.1159 177.287 14.2615C177.1 14.4013 176.966 14.6226 176.884 14.9255C176.802 15.2226 176.761 15.9944 176.761 17.2409V17.8175H178.827V18.4466H176.761Z" fill="white"/>
<path d="M183.518 17.5816C184.732 17.5816 185.706 18.0418 186.441 18.9621C187.066 19.7485 187.378 20.6513 187.378 21.6707C187.378 22.3871 187.206 23.1123 186.861 23.8462C186.517 24.5802 186.042 25.1335 185.435 25.5063C184.834 25.8791 184.163 26.0655 183.422 26.0655C182.214 26.0655 181.254 25.5849 180.542 24.6239C179.941 23.8142 179.641 22.9055 179.641 21.8978C179.641 21.1639 179.822 20.4358 180.183 19.7135C180.551 18.9854 181.032 18.4495 181.628 18.1059C182.223 17.7564 182.853 17.5816 183.518 17.5816ZM183.247 18.1495C182.937 18.1495 182.625 18.2427 182.31 18.4291C182.001 18.6097 181.75 18.9301 181.558 19.3902C181.365 19.8504 181.269 20.4416 181.269 21.1639C181.269 22.3289 181.499 23.3336 181.96 24.1783C182.427 25.0229 183.04 25.4452 183.798 25.4452C184.364 25.4452 184.831 25.2122 185.198 24.7462C185.566 24.2802 185.75 23.4793 185.75 22.3434C185.75 20.9222 185.443 19.8038 184.831 18.9883C184.417 18.4291 183.889 18.1495 183.247 18.1495Z" fill="white"/>
<path d="M190.905 17.5816V19.3815C191.576 18.1816 192.264 17.5816 192.97 17.5816C193.291 17.5816 193.557 17.6806 193.767 17.8787C193.977 18.0709 194.082 18.2952 194.082 18.5515C194.082 18.7786 194.006 18.9708 193.854 19.1281C193.703 19.2854 193.522 19.364 193.312 19.364C193.107 19.364 192.877 19.265 192.62 19.067C192.369 18.8631 192.183 18.7612 192.06 18.7612C191.955 18.7612 191.841 18.8194 191.719 18.9359C191.456 19.1747 191.185 19.5679 190.905 20.1154V23.9511C190.905 24.3938 190.96 24.7287 191.071 24.9559C191.147 25.1131 191.281 25.2442 191.474 25.349C191.666 25.4539 191.943 25.5063 192.305 25.5063V25.8209H188.2V25.5063C188.609 25.5063 188.912 25.4422 189.111 25.3141C189.256 25.2209 189.359 25.0724 189.417 24.8685C189.446 24.7695 189.461 24.487 189.461 24.021V20.9193C189.461 19.9873 189.44 19.4339 189.399 19.2592C189.364 19.0786 189.294 18.9476 189.189 18.866C189.09 18.7845 188.965 18.7437 188.813 18.7437C188.632 18.7437 188.428 18.7874 188.2 18.8747L188.113 18.5602L190.537 17.5816H190.905Z" fill="white"/>
<path d="M196.909 19.2854C197.492 18.7029 197.836 18.368 197.941 18.2806C198.204 18.0593 198.487 17.8874 198.79 17.7651C199.094 17.6428 199.394 17.5816 199.692 17.5816C200.194 17.5816 200.625 17.7272 200.987 18.0185C201.349 18.3097 201.591 18.732 201.714 19.2854C202.315 18.5864 202.822 18.1292 203.237 17.9136C203.651 17.6923 204.077 17.5816 204.514 17.5816C204.94 17.5816 205.317 17.6923 205.643 17.9136C205.976 18.1292 206.238 18.4845 206.431 18.9796C206.559 19.3174 206.624 19.8475 206.624 20.5698V24.0122C206.624 24.5132 206.662 24.8568 206.737 25.0432C206.796 25.1714 206.904 25.2821 207.061 25.3753C207.219 25.4626 207.475 25.5063 207.831 25.5063V25.8209H203.875V25.5063H204.042C204.386 25.5063 204.654 25.4393 204.847 25.3054C204.981 25.2122 205.077 25.0636 205.136 24.8598C205.159 24.7607 205.171 24.4782 205.171 24.0122V20.5698C205.171 19.9174 205.092 19.4572 204.934 19.1893C204.707 18.8165 204.342 18.6301 203.84 18.6301C203.531 18.6301 203.219 18.7087 202.904 18.866C202.595 19.0174 202.218 19.3029 201.775 19.7223L201.757 19.8184L201.775 20.1941V24.0122C201.775 24.5598 201.804 24.9005 201.862 25.0345C201.927 25.1685 202.043 25.2821 202.213 25.3753C202.382 25.4626 202.671 25.5063 203.079 25.5063V25.8209H199.027V25.5063C199.47 25.5063 199.774 25.4539 199.937 25.349C200.106 25.2442 200.223 25.0869 200.287 24.8772C200.316 24.7782 200.331 24.4899 200.331 24.0122V20.5698C200.331 19.9174 200.235 19.4485 200.042 19.1631C199.785 18.7903 199.426 18.6039 198.965 18.6039C198.65 18.6039 198.338 18.6883 198.029 18.8573C197.545 19.1136 197.171 19.4019 196.909 19.7223V24.0122C196.909 24.5365 196.944 24.8772 197.014 25.0345C197.09 25.1918 197.198 25.3112 197.338 25.3927C197.483 25.4685 197.775 25.5063 198.213 25.5063V25.8209H194.248V25.5063C194.616 25.5063 194.872 25.4685 195.018 25.3927C195.164 25.3112 195.275 25.1859 195.351 25.017C195.427 24.8423 195.465 24.5074 195.465 24.0122V20.9542C195.465 20.0747 195.438 19.5067 195.386 19.2504C195.345 19.0582 195.281 18.9272 195.193 18.8573C195.106 18.7815 194.986 18.7437 194.834 18.7437C194.671 18.7437 194.476 18.7874 194.248 18.8747L194.117 18.5602L196.532 17.5816H196.909V19.2854Z" fill="white"/>
<path d="M213.021 24.6675C212.199 25.3024 211.682 25.6694 211.472 25.7684C211.157 25.9141 210.822 25.9869 210.466 25.9869C209.911 25.9869 209.453 25.7976 209.092 25.4189C208.736 25.0403 208.558 24.5423 208.558 23.9249C208.558 23.5346 208.645 23.1968 208.82 22.9113C209.06 22.5153 209.474 22.1425 210.063 21.793C210.658 21.4435 211.644 21.0183 213.021 20.5173V20.2028C213.021 19.4048 212.893 18.8573 212.636 18.5602C212.385 18.2631 212.018 18.1146 211.534 18.1146C211.166 18.1146 210.874 18.2136 210.658 18.4117C210.437 18.6097 210.326 18.8369 210.326 19.0932L210.343 19.5999C210.343 19.8679 210.273 20.0747 210.133 20.2203C209.999 20.3659 209.821 20.4387 209.599 20.4387C209.383 20.4387 209.205 20.363 209.065 20.2115C208.931 20.0601 208.864 19.8533 208.864 19.5912C208.864 19.0903 209.121 18.6301 209.634 18.2107C210.148 17.7913 210.868 17.5816 211.796 17.5816C212.508 17.5816 213.091 17.701 213.547 17.9399C213.891 18.1204 214.145 18.4029 214.308 18.7874C214.413 19.0378 214.465 19.5504 214.465 20.3251V23.0424C214.465 23.8055 214.48 24.2744 214.509 24.4491C214.538 24.618 214.585 24.7316 214.649 24.7899C214.719 24.8481 214.798 24.8772 214.886 24.8772C214.979 24.8772 215.061 24.8568 215.131 24.8161C215.253 24.7403 215.489 24.5277 215.84 24.1783V24.6675C215.186 25.5413 214.562 25.9781 213.967 25.9781C213.681 25.9781 213.453 25.8791 213.284 25.6811C213.115 25.483 213.027 25.1452 213.021 24.6675ZM213.021 24.0996V21.0503C212.14 21.3998 211.571 21.6474 211.315 21.793C210.854 22.0493 210.524 22.3172 210.326 22.5968C210.127 22.8764 210.028 23.1822 210.028 23.5142C210.028 23.9336 210.154 24.2831 210.404 24.5627C210.655 24.8365 210.944 24.9733 211.271 24.9733C211.714 24.9733 212.298 24.6821 213.021 24.0996Z" fill="white"/>
<path d="M218.772 15.1876V17.8175H220.644V18.4291H218.772V23.6191C218.772 24.1375 218.844 24.487 218.99 24.6675C219.142 24.8481 219.335 24.9384 219.568 24.9384C219.76 24.9384 219.947 24.8801 220.128 24.7636C220.309 24.6413 220.449 24.4637 220.548 24.2307H220.89C220.685 24.8015 220.396 25.2325 220.023 25.5238C219.65 25.8092 219.265 25.9519 218.868 25.9519C218.599 25.9519 218.337 25.8791 218.08 25.7335C217.823 25.582 217.634 25.3694 217.511 25.0957C217.389 24.8161 217.327 24.3879 217.327 23.8113V18.4291H216.058V18.1408C216.379 18.0127 216.706 17.7971 217.039 17.4943C217.377 17.1855 217.677 16.8215 217.94 16.4021C218.074 16.1808 218.261 15.7759 218.5 15.1876H218.772Z" fill="white"/>
<path d="M223.471 13.3965C223.716 13.3965 223.924 13.4839 224.093 13.6586C224.268 13.8275 224.355 14.0343 224.355 14.2789C224.355 14.5236 224.268 14.7333 224.093 14.908C223.924 15.0828 223.716 15.1701 223.471 15.1701C223.226 15.1701 223.016 15.0828 222.841 14.908C222.666 14.7333 222.579 14.5236 222.579 14.2789C222.579 14.0343 222.663 13.8275 222.832 13.6586C223.008 13.4839 223.22 13.3965 223.471 13.3965ZM224.198 17.5816V24.0122C224.198 24.5132 224.233 24.8481 224.303 25.017C224.379 25.1801 224.487 25.3024 224.627 25.384C224.773 25.4655 225.035 25.5063 225.414 25.5063V25.8209H221.52V25.5063C221.911 25.5063 222.173 25.4685 222.307 25.3927C222.442 25.317 222.547 25.1918 222.622 25.017C222.704 24.8423 222.745 24.5074 222.745 24.0122V20.928C222.745 20.0601 222.719 19.498 222.666 19.2417C222.625 19.0553 222.561 18.9272 222.474 18.8573C222.386 18.7815 222.267 18.7437 222.115 18.7437C221.951 18.7437 221.753 18.7874 221.52 18.8747L221.397 18.5602L223.813 17.5816H224.198Z" fill="white"/>
<path d="M230.342 17.5816C231.555 17.5816 232.53 18.0418 233.265 18.9621C233.889 19.7485 234.201 20.6513 234.201 21.6707C234.201 22.3871 234.029 23.1123 233.685 23.8462C233.341 24.5802 232.865 25.1335 232.258 25.5063C231.658 25.8791 230.987 26.0655 230.246 26.0655C229.038 26.0655 228.078 25.5849 227.366 24.6239C226.765 23.8142 226.465 22.9055 226.465 21.8978C226.465 21.1639 226.645 20.4358 227.007 19.7135C227.375 18.9854 227.856 18.4495 228.451 18.1059C229.046 17.7564 229.677 17.5816 230.342 17.5816ZM230.07 18.1495C229.761 18.1495 229.449 18.2427 229.134 18.4291C228.825 18.6097 228.574 18.9301 228.381 19.3902C228.189 19.8504 228.092 20.4416 228.092 21.1639C228.092 22.3289 228.323 23.3336 228.784 24.1783C229.251 25.0229 229.863 25.4452 230.622 25.4452C231.188 25.4452 231.655 25.2122 232.022 24.7462C232.39 24.2802 232.574 23.4793 232.574 22.3434C232.574 20.9222 232.267 19.8038 231.655 18.9883C231.24 18.4291 230.712 18.1495 230.07 18.1495Z" fill="white"/>
<path d="M237.72 19.2767C238.659 18.1466 239.555 17.5816 240.407 17.5816C240.844 17.5816 241.221 17.6923 241.536 17.9136C241.851 18.1292 242.102 18.4874 242.288 18.9883C242.417 19.3378 242.481 19.8737 242.481 20.596V24.0122C242.481 24.519 242.522 24.8627 242.604 25.0432C242.668 25.1889 242.77 25.3024 242.91 25.384C243.056 25.4655 243.321 25.5063 243.706 25.5063V25.8209H239.742V25.5063H239.908C240.281 25.5063 240.541 25.451 240.687 25.3403C240.838 25.2238 240.944 25.0549 241.002 24.8335C241.025 24.7462 241.037 24.4724 241.037 24.0122V20.7358C241.037 20.0077 240.941 19.4805 240.748 19.1543C240.561 18.8223 240.243 18.6563 239.794 18.6563C239.1 18.6563 238.408 19.0349 237.72 19.7922V24.0122C237.72 24.554 237.752 24.8889 237.816 25.017C237.898 25.1859 238.009 25.3112 238.149 25.3927C238.295 25.4685 238.586 25.5063 239.024 25.5063V25.8209H235.059V25.5063H235.234C235.643 25.5063 235.917 25.4044 236.057 25.2005C236.203 24.9908 236.276 24.5947 236.276 24.0122V21.0416C236.276 20.0805 236.252 19.4951 236.206 19.2854C236.165 19.0757 236.098 18.933 236.004 18.8573C235.917 18.7815 235.797 18.7437 235.646 18.7437C235.482 18.7437 235.287 18.7874 235.059 18.8747L234.928 18.5602L237.343 17.5816H237.72V19.2767Z" fill="white"/>
<path d="M101.283 41.2168C101.277 42.4051 101.566 43.3371 102.15 44.0128C102.733 44.6884 103.419 45.0263 104.206 45.0263C104.732 45.0263 105.187 44.8836 105.572 44.5982C105.963 44.3069 106.289 43.8118 106.552 43.1128L106.823 43.2876C106.701 44.0856 106.345 44.8137 105.756 45.4719C105.166 46.1243 104.428 46.4505 103.541 46.4505C102.579 46.4505 101.753 46.0777 101.064 45.3321C100.382 44.5807 100.04 43.573 100.04 42.309C100.04 40.9402 100.391 39.8742 101.091 39.1112C101.797 38.3423 102.681 37.9578 103.743 37.9578C104.641 37.9578 105.379 38.2549 105.957 38.849C106.535 39.4374 106.823 40.2266 106.823 41.2168H101.283ZM101.283 40.7101H104.994C104.965 40.1975 104.904 39.8364 104.81 39.6267C104.664 39.3005 104.446 39.0442 104.154 38.8578C103.868 38.6714 103.568 38.5782 103.252 38.5782C102.768 38.5782 102.334 38.7675 101.948 39.1461C101.569 39.5189 101.347 40.0402 101.283 40.7101Z" fill="white"/>
<path d="M110.228 35.5726V38.2025H112.101V38.8141H110.228V44.004C110.228 44.5224 110.301 44.8719 110.447 45.0525C110.598 45.2331 110.791 45.3233 111.024 45.3233C111.217 45.3233 111.404 45.2651 111.584 45.1486C111.765 45.0263 111.905 44.8486 112.005 44.6156H112.346C112.142 45.1865 111.853 45.6175 111.479 45.9087C111.106 46.1942 110.721 46.3369 110.324 46.3369C110.056 46.3369 109.793 46.2641 109.536 46.1184C109.28 45.967 109.09 45.7544 108.968 45.4806C108.845 45.201 108.784 44.7729 108.784 44.1962V38.8141H107.515V38.5258C107.836 38.3976 108.162 38.1821 108.495 37.8792C108.833 37.5705 109.134 37.2064 109.396 36.7871C109.531 36.5657 109.717 36.1609 109.957 35.5726H110.228Z" fill="white"/>
<path d="M123.032 45.3059C122.641 45.7136 122.259 46.0078 121.886 46.1883C121.512 46.3631 121.11 46.4505 120.678 46.4505C119.803 46.4505 119.038 46.0864 118.385 45.3583C117.731 44.6244 117.405 43.6837 117.405 42.5362C117.405 41.3887 117.766 40.3402 118.49 39.3908C119.213 38.4355 120.144 37.9578 121.282 37.9578C121.988 37.9578 122.571 38.1821 123.032 38.6306V37.154C123.032 36.2395 123.009 35.6774 122.962 35.4677C122.921 35.258 122.854 35.1153 122.761 35.0396C122.668 34.9639 122.551 34.926 122.411 34.926C122.259 34.926 122.058 34.9726 121.807 35.0658L121.693 34.76L124.082 33.7814H124.476V43.0342C124.476 43.972 124.497 44.5457 124.538 44.7554C124.584 44.9593 124.654 45.102 124.748 45.1836C124.847 45.2651 124.961 45.3059 125.089 45.3059C125.247 45.3059 125.457 45.2564 125.719 45.1573L125.815 45.4631L123.435 46.4505H123.032V45.3059ZM123.032 44.6943V40.5703C122.997 40.1742 122.892 39.8131 122.717 39.4869C122.542 39.1607 122.309 38.916 122.017 38.7529C121.731 38.584 121.451 38.4996 121.177 38.4996C120.663 38.4996 120.205 38.7296 119.803 39.1898C119.272 39.7956 119.006 40.681 119.006 41.8459C119.006 43.0225 119.263 43.9254 119.776 44.5545C120.29 45.1777 120.862 45.4894 121.492 45.4894C122.023 45.4894 122.536 45.2243 123.032 44.6943Z" fill="white"/>
<path d="M127.855 38.6131V38.2025C128.456 37.8472 128.864 37.5152 129.08 37.2064C129.232 36.9851 129.307 36.7201 129.307 36.4114C129.307 36.2308 129.275 36.0968 129.211 36.0094C129.141 35.9221 129.065 35.8784 128.984 35.8784C128.919 35.8784 128.835 35.8988 128.73 35.9395C128.578 35.992 128.453 36.0182 128.354 36.0182C128.12 36.0182 127.913 35.9308 127.732 35.7561C127.551 35.5813 127.461 35.3629 127.461 35.1008C127.461 34.8095 127.551 34.5824 127.732 34.4193C127.977 34.1979 128.269 34.0872 128.607 34.0872C128.998 34.0872 129.348 34.2533 129.658 34.5853C129.973 34.9115 130.13 35.3192 130.13 35.8085C130.13 36.4958 129.871 37.122 129.351 37.687C129.007 38.0598 128.508 38.3685 127.855 38.6131Z" fill="white"/>
<path d="M136.843 45.0525C136.02 45.6874 135.504 46.0544 135.294 46.1534C134.979 46.299 134.643 46.3718 134.287 46.3718C133.733 46.3718 133.275 46.1825 132.913 45.8039C132.557 45.4253 132.379 44.9273 132.379 44.3098C132.379 43.9196 132.467 43.5817 132.642 43.2963C132.881 42.9002 133.296 42.5274 133.885 42.1779C134.48 41.8284 135.466 41.4032 136.843 40.9023V40.5878C136.843 39.7898 136.715 39.2422 136.458 38.9452C136.207 38.6481 135.839 38.4996 135.355 38.4996C134.988 38.4996 134.696 38.5986 134.48 38.7966C134.258 38.9947 134.147 39.2218 134.147 39.4781L134.165 39.9849C134.165 40.2528 134.095 40.4596 133.955 40.6052C133.821 40.7509 133.643 40.8237 133.421 40.8237C133.205 40.8237 133.027 40.7479 132.887 40.5965C132.753 40.4451 132.686 40.2383 132.686 39.9762C132.686 39.4752 132.943 39.0151 133.456 38.5957C133.969 38.1763 134.69 37.9666 135.618 37.9666C136.33 37.9666 136.913 38.086 137.368 38.3248C137.712 38.5054 137.966 38.7879 138.13 39.1723C138.235 39.4228 138.287 39.9354 138.287 40.7101V43.4274C138.287 44.1904 138.302 44.6593 138.331 44.8341C138.36 45.003 138.407 45.1166 138.471 45.1748C138.541 45.2331 138.62 45.2622 138.707 45.2622C138.801 45.2622 138.882 45.2418 138.952 45.201C139.075 45.1253 139.311 44.9127 139.661 44.5632V45.0525C139.008 45.9262 138.383 46.3631 137.788 46.3631C137.502 46.3631 137.275 46.2641 137.106 46.066C136.936 45.868 136.849 45.5301 136.843 45.0525ZM136.843 44.4846V41.4353C135.962 41.7848 135.393 42.0323 135.136 42.1779C134.675 42.4342 134.346 42.7022 134.147 42.9818C133.949 43.2614 133.85 43.5672 133.85 43.8992C133.85 44.3186 133.975 44.6681 134.226 44.9476C134.477 45.2214 134.766 45.3583 135.093 45.3583C135.536 45.3583 136.12 45.0671 136.843 44.4846Z" fill="white"/>
<path d="M139.687 38.9976L142.156 38.0015H142.488V39.8713C142.902 39.1665 143.317 38.6743 143.731 38.3947C144.151 38.1093 144.592 37.9666 145.053 37.9666C145.858 37.9666 146.529 38.2811 147.066 38.9102C147.725 39.6791 148.054 40.681 148.054 41.9158C148.054 43.2963 147.658 44.438 146.864 45.3408C146.211 46.0806 145.388 46.4505 144.396 46.4505C143.964 46.4505 143.591 46.3893 143.276 46.267C143.042 46.1796 142.78 46.0049 142.488 45.7427V48.1804C142.488 48.728 142.52 49.0745 142.584 49.2202C142.654 49.3716 142.771 49.491 142.935 49.5784C143.104 49.6658 143.407 49.7094 143.845 49.7094V50.0327H139.644V49.7094H139.863C140.183 49.7153 140.458 49.6541 140.685 49.526C140.796 49.4619 140.881 49.357 140.939 49.2114C141.003 49.0716 141.035 48.7105 141.035 48.128V40.5615C141.035 40.0431 141.012 39.714 140.965 39.5742C140.919 39.4344 140.843 39.3296 140.738 39.2597C140.639 39.1898 140.501 39.1549 140.326 39.1549C140.186 39.1549 140.008 39.1956 139.793 39.2772L139.687 38.9976ZM142.488 40.3868V43.3749C142.488 44.0215 142.514 44.4467 142.567 44.6506C142.649 44.9884 142.847 45.2855 143.162 45.5418C143.483 45.7981 143.886 45.9262 144.37 45.9262C144.953 45.9262 145.426 45.6991 145.788 45.2447C146.26 44.6506 146.497 43.8147 146.497 42.7371C146.497 41.5139 146.228 40.5732 145.691 39.915C145.318 39.4607 144.875 39.2335 144.361 39.2335C144.081 39.2335 143.804 39.3034 143.53 39.4432C143.32 39.548 142.972 39.8626 142.488 40.3868Z" fill="white"/>
<path d="M148.65 38.9976L151.118 38.0015H151.45V39.8713C151.865 39.1665 152.279 38.6743 152.693 38.3947C153.113 38.1093 153.554 37.9666 154.015 37.9666C154.82 37.9666 155.491 38.2811 156.028 38.9102C156.687 39.6791 157.017 40.681 157.017 41.9158C157.017 43.2963 156.62 44.438 155.826 45.3408C155.173 46.0806 154.35 46.4505 153.358 46.4505C152.926 46.4505 152.553 46.3893 152.238 46.267C152.005 46.1796 151.742 46.0049 151.45 45.7427V48.1804C151.45 48.728 151.482 49.0745 151.547 49.2202C151.617 49.3716 151.733 49.491 151.897 49.5784C152.066 49.6658 152.369 49.7094 152.807 49.7094V50.0327H148.606V49.7094H148.825C149.146 49.7153 149.42 49.6541 149.647 49.526C149.758 49.4619 149.843 49.357 149.901 49.2114C149.965 49.0716 149.997 48.7105 149.997 48.128V40.5615C149.997 40.0431 149.974 39.714 149.927 39.5742C149.881 39.4344 149.805 39.3296 149.7 39.2597C149.601 39.1898 149.464 39.1549 149.289 39.1549C149.149 39.1549 148.971 39.1956 148.755 39.2772L148.65 38.9976ZM151.45 40.3868V43.3749C151.45 44.0215 151.477 44.4467 151.529 44.6506C151.611 44.9884 151.809 45.2855 152.124 45.5418C152.445 45.7981 152.848 45.9262 153.332 45.9262C153.915 45.9262 154.388 45.6991 154.75 45.2447C155.222 44.6506 155.459 43.8147 155.459 42.7371C155.459 41.5139 155.19 40.5732 154.654 39.915C154.28 39.4607 153.837 39.2335 153.323 39.2335C153.043 39.2335 152.766 39.3034 152.492 39.4432C152.282 39.548 151.935 39.8626 151.45 40.3868Z" fill="white"/>
<path d="M160.535 37.9666V39.7665C161.206 38.5665 161.894 37.9666 162.6 37.9666C162.921 37.9666 163.187 38.0656 163.397 38.2637C163.607 38.4559 163.712 38.6801 163.712 38.9364C163.712 39.1636 163.636 39.3558 163.484 39.5131C163.333 39.6703 163.152 39.749 162.942 39.749C162.738 39.749 162.507 39.65 162.25 39.4519C162 39.2481 161.813 39.1461 161.69 39.1461C161.585 39.1461 161.471 39.2044 161.349 39.3209C161.086 39.5597 160.815 39.9529 160.535 40.5004V44.336C160.535 44.7787 160.59 45.1137 160.701 45.3408C160.777 45.4981 160.911 45.6292 161.104 45.734C161.296 45.8388 161.574 45.8913 161.935 45.8913V46.2058H157.831V45.8913C158.239 45.8913 158.542 45.8272 158.741 45.6991C158.887 45.6059 158.989 45.4573 159.047 45.2535C159.076 45.1544 159.091 44.8719 159.091 44.4059V41.3042C159.091 40.3722 159.07 39.8189 159.03 39.6441C158.995 39.4636 158.925 39.3325 158.82 39.251C158.72 39.1694 158.595 39.1286 158.443 39.1286C158.262 39.1286 158.058 39.1723 157.831 39.2597L157.743 38.9452L160.167 37.9666H160.535Z" fill="white"/>
<path d="M165.506 41.2168C165.5 42.4051 165.789 43.3371 166.373 44.0128C166.956 44.6884 167.642 45.0263 168.429 45.0263C168.955 45.0263 169.41 44.8836 169.795 44.5982C170.186 44.3069 170.512 43.8118 170.775 43.1128L171.046 43.2876C170.924 44.0856 170.568 44.8137 169.979 45.4719C169.389 46.1243 168.651 46.4505 167.764 46.4505C166.802 46.4505 165.976 46.0777 165.287 45.3321C164.605 44.5807 164.263 43.573 164.263 42.309C164.263 40.9402 164.613 39.8742 165.314 39.1112C166.02 38.3423 166.904 37.9578 167.966 37.9578C168.864 37.9578 169.602 38.2549 170.18 38.849C170.757 39.4374 171.046 40.2266 171.046 41.2168H165.506ZM165.506 40.7101H169.217C169.188 40.1975 169.127 39.8364 169.033 39.6267C168.887 39.3005 168.669 39.0442 168.377 38.8578C168.091 38.6714 167.79 38.5782 167.475 38.5782C166.991 38.5782 166.556 38.7675 166.171 39.1461C165.792 39.5189 165.57 40.0402 165.506 40.7101Z" fill="white"/>
<path d="M174.46 39.6616C175.399 38.5316 176.295 37.9666 177.146 37.9666C177.584 37.9666 177.96 38.0773 178.276 38.2986C178.591 38.5141 178.841 38.8723 179.028 39.3733C179.157 39.7228 179.221 40.2587 179.221 40.9809V44.3972C179.221 44.904 179.262 45.2476 179.343 45.4282C179.407 45.5738 179.51 45.6874 179.65 45.7689C179.795 45.8505 180.061 45.8913 180.446 45.8913V46.2058H176.481V45.8913H176.648C177.021 45.8913 177.281 45.8359 177.427 45.7253C177.578 45.6088 177.683 45.4398 177.742 45.2185C177.765 45.1311 177.777 44.8574 177.777 44.3972V41.1207C177.777 40.3926 177.68 39.8655 177.488 39.5393C177.301 39.2073 176.983 39.0413 176.534 39.0413C175.84 39.0413 175.148 39.4199 174.46 40.1771V44.3972C174.46 44.9389 174.492 45.2738 174.556 45.402C174.638 45.5709 174.748 45.6961 174.888 45.7777C175.034 45.8534 175.326 45.8913 175.764 45.8913V46.2058H171.799V45.8913H171.974C172.382 45.8913 172.657 45.7893 172.797 45.5855C172.943 45.3758 173.016 44.9797 173.016 44.3972V41.4265C173.016 40.4654 172.992 39.88 172.945 39.6703C172.905 39.4607 172.838 39.3179 172.744 39.2422C172.657 39.1665 172.537 39.1286 172.385 39.1286C172.222 39.1286 172.027 39.1723 171.799 39.2597L171.668 38.9452L174.083 37.9666H174.46V39.6616Z" fill="white"/>
<path d="M183.413 35.5726V38.2025H185.286V38.8141H183.413V44.004C183.413 44.5224 183.486 44.8719 183.632 45.0525C183.784 45.2331 183.976 45.3233 184.209 45.3233C184.402 45.3233 184.589 45.2651 184.77 45.1486C184.95 45.0263 185.09 44.8486 185.19 44.6156H185.531C185.327 45.1865 185.038 45.6175 184.665 45.9087C184.291 46.1942 183.906 46.3369 183.509 46.3369C183.241 46.3369 182.978 46.2641 182.722 46.1184C182.465 45.967 182.275 45.7544 182.153 45.4806C182.03 45.201 181.969 44.7729 181.969 44.1962V38.8141H180.7V38.5258C181.021 38.3976 181.348 38.1821 181.68 37.8792C182.019 37.5705 182.319 37.2064 182.582 36.7871C182.716 36.5657 182.902 36.1609 183.142 35.5726H183.413Z" fill="white"/>
<path d="M188.113 33.7814C188.358 33.7814 188.565 33.8688 188.734 34.0436C188.909 34.2125 188.997 34.4193 188.997 34.6639C188.997 34.9085 188.909 35.1182 188.734 35.293C188.565 35.4677 188.358 35.5551 188.113 35.5551C187.868 35.5551 187.658 35.4677 187.483 35.293C187.308 35.1182 187.22 34.9085 187.22 34.6639C187.22 34.4193 187.305 34.2125 187.474 34.0436C187.649 33.8688 187.862 33.7814 188.113 33.7814ZM188.839 37.9666V44.3972C188.839 44.8981 188.874 45.2331 188.944 45.402C189.02 45.5651 189.128 45.6874 189.268 45.7689C189.414 45.8505 189.677 45.8913 190.056 45.8913V46.2058H186.161V45.8913C186.552 45.8913 186.815 45.8534 186.949 45.7777C187.083 45.702 187.188 45.5767 187.264 45.402C187.346 45.2272 187.386 44.8923 187.386 44.3972V41.313C187.386 40.4451 187.36 39.883 187.308 39.6267C187.267 39.4403 187.203 39.3121 187.115 39.2422C187.028 39.1665 186.908 39.1286 186.756 39.1286C186.593 39.1286 186.395 39.1723 186.161 39.2597L186.039 38.9452L188.454 37.9666H188.839Z" fill="white"/>
<path d="M196.244 37.9666V40.6926H195.955C195.733 39.8364 195.447 39.2539 195.097 38.9452C194.753 38.6364 194.312 38.4821 193.775 38.4821C193.367 38.4821 193.037 38.5898 192.786 38.8054C192.536 39.0209 192.41 39.2597 192.41 39.5218C192.41 39.848 192.504 40.1276 192.69 40.3606C192.871 40.5994 193.239 40.8528 193.793 41.1207L195.071 41.7411C196.255 42.3177 196.847 43.0779 196.847 44.0215C196.847 44.7496 196.57 45.3379 196.016 45.7864C195.468 46.2291 194.852 46.4505 194.169 46.4505C193.679 46.4505 193.119 46.3631 192.489 46.1883C192.296 46.1301 192.139 46.101 192.016 46.101C191.882 46.101 191.777 46.1767 191.701 46.3281H191.412V43.4711H191.701C191.865 44.2865 192.177 44.901 192.638 45.3146C193.099 45.7282 193.615 45.935 194.187 45.935C194.589 45.935 194.916 45.8185 195.167 45.5855C195.424 45.3466 195.552 45.0612 195.552 44.7292C195.552 44.3273 195.409 43.9895 195.123 43.7157C194.843 43.4419 194.28 43.0954 193.434 42.676C192.588 42.2566 192.034 41.878 191.771 41.5401C191.509 41.2081 191.377 40.7887 191.377 40.282C191.377 39.6237 191.602 39.0733 192.051 38.6306C192.506 38.1879 193.093 37.9666 193.811 37.9666C194.126 37.9666 194.508 38.0336 194.957 38.1675C195.255 38.2549 195.453 38.2986 195.552 38.2986C195.646 38.2986 195.718 38.2782 195.771 38.2374C195.823 38.1967 195.885 38.1064 195.955 37.9666H196.244Z" fill="white"/>
<path d="M203.228 37.9666V40.6926H202.939C202.717 39.8364 202.431 39.2539 202.081 38.9452C201.737 38.6364 201.296 38.4821 200.76 38.4821C200.351 38.4821 200.022 38.5898 199.771 38.8054C199.52 39.0209 199.394 39.2597 199.394 39.5218C199.394 39.848 199.488 40.1276 199.674 40.3606C199.855 40.5994 200.223 40.8528 200.777 41.1207L202.055 41.7411C203.239 42.3177 203.832 43.0779 203.832 44.0215C203.832 44.7496 203.555 45.3379 203 45.7864C202.452 46.2291 201.836 46.4505 201.154 46.4505C200.663 46.4505 200.103 46.3631 199.473 46.1883C199.281 46.1301 199.123 46.101 199 46.101C198.866 46.101 198.761 46.1767 198.685 46.3281H198.397V43.4711H198.685C198.849 44.2865 199.161 44.901 199.622 45.3146C200.083 45.7282 200.599 45.935 201.171 45.935C201.574 45.935 201.9 45.8185 202.151 45.5855C202.408 45.3466 202.536 45.0612 202.536 44.7292C202.536 44.3273 202.393 43.9895 202.107 43.7157C201.827 43.4419 201.264 43.0954 200.418 42.676C199.572 42.2566 199.018 41.878 198.755 41.5401C198.493 41.2081 198.362 40.7887 198.362 40.282C198.362 39.6237 198.586 39.0733 199.036 38.6306C199.491 38.1879 200.077 37.9666 200.795 37.9666C201.11 37.9666 201.492 38.0336 201.941 38.1675C202.239 38.2549 202.437 38.2986 202.536 38.2986C202.63 38.2986 202.703 38.2782 202.755 38.2374C202.808 38.1967 202.869 38.1064 202.939 37.9666H203.228Z" fill="white"/>
<path d="M209.573 45.0525C208.75 45.6874 208.234 46.0544 208.024 46.1534C207.709 46.299 207.373 46.3718 207.017 46.3718C206.463 46.3718 206.005 46.1825 205.643 45.8039C205.287 45.4253 205.109 44.9273 205.109 44.3098C205.109 43.9196 205.197 43.5817 205.372 43.2963C205.611 42.9002 206.026 42.5274 206.615 42.1779C207.21 41.8284 208.196 41.4032 209.573 40.9023V40.5878C209.573 39.7898 209.445 39.2422 209.188 38.9452C208.937 38.6481 208.569 38.4996 208.085 38.4996C207.718 38.4996 207.426 38.5986 207.21 38.7966C206.988 38.9947 206.877 39.2218 206.877 39.4781L206.895 39.9849C206.895 40.2528 206.825 40.4596 206.685 40.6052C206.551 40.7509 206.373 40.8237 206.151 40.8237C205.935 40.8237 205.757 40.7479 205.617 40.5965C205.483 40.4451 205.416 40.2383 205.416 39.9762C205.416 39.4752 205.673 39.0151 206.186 38.5957C206.699 38.1763 207.42 37.9666 208.348 37.9666C209.06 37.9666 209.643 38.086 210.098 38.3248C210.442 38.5054 210.696 38.7879 210.86 39.1723C210.965 39.4228 211.017 39.9354 211.017 40.7101V43.4274C211.017 44.1904 211.032 44.6593 211.061 44.8341C211.09 45.003 211.137 45.1166 211.201 45.1748C211.271 45.2331 211.35 45.2622 211.437 45.2622C211.531 45.2622 211.612 45.2418 211.682 45.201C211.805 45.1253 212.041 44.9127 212.391 44.5632V45.0525C211.738 45.9262 211.113 46.3631 210.518 46.3631C210.232 46.3631 210.005 46.2641 209.836 46.066C209.666 45.868 209.579 45.5301 209.573 45.0525ZM209.573 44.4846V41.4353C208.692 41.7848 208.123 42.0323 207.866 42.1779C207.405 42.4342 207.076 42.7022 206.877 42.9818C206.679 43.2614 206.58 43.5672 206.58 43.8992C206.58 44.3186 206.705 44.6681 206.956 44.9476C207.207 45.2214 207.496 45.3583 207.823 45.3583C208.266 45.3583 208.85 45.0671 209.573 44.4846Z" fill="white"/>
<path d="M215.139 43.2876C214.649 43.0488 214.273 42.7167 214.01 42.2915C213.748 41.8605 213.617 41.3858 213.617 40.8674C213.617 40.0752 213.914 39.3937 214.509 38.8228C215.11 38.252 215.877 37.9666 216.811 37.9666C217.575 37.9666 218.238 38.153 218.798 38.5258H220.496C220.747 38.5258 220.892 38.5345 220.933 38.552C220.974 38.5636 221.003 38.5869 221.021 38.6219C221.056 38.6743 221.073 38.7675 221.073 38.9015C221.073 39.0529 221.059 39.1578 221.03 39.216C221.012 39.2451 220.98 39.2684 220.933 39.2859C220.892 39.3034 220.747 39.3121 220.496 39.3121H219.454C219.781 39.7315 219.944 40.2674 219.944 40.9198C219.944 41.6654 219.658 42.3032 219.087 42.8332C218.515 43.3633 217.748 43.6283 216.785 43.6283C216.388 43.6283 215.982 43.5701 215.568 43.4536C215.312 43.6749 215.136 43.8701 215.043 44.039C214.956 44.2021 214.912 44.3419 214.912 44.4584C214.912 44.5574 214.958 44.6535 215.052 44.7467C215.151 44.8399 215.341 44.9069 215.621 44.9476C215.784 44.9709 216.193 44.9913 216.846 45.0088C218.048 45.0379 218.827 45.0787 219.183 45.1311C219.725 45.2069 220.157 45.4078 220.478 45.734C220.805 46.0602 220.968 46.4621 220.968 46.9397C220.968 47.5979 220.659 48.2154 220.041 48.792C219.13 49.6425 217.943 50.0677 216.478 50.0677C215.352 50.0677 214.401 49.8143 213.625 49.3075C213.188 49.0163 212.969 48.7134 212.969 48.3989C212.969 48.2591 213.001 48.1193 213.065 47.9795C213.164 47.764 213.369 47.464 213.678 47.0795C213.719 47.0271 214.016 46.7126 214.57 46.1359C214.267 45.9553 214.051 45.7952 213.923 45.6554C213.8 45.5097 213.739 45.3466 213.739 45.1661C213.739 44.9622 213.821 44.7234 213.984 44.4496C214.153 44.1759 214.538 43.7885 215.139 43.2876ZM216.662 38.386C216.23 38.386 215.869 38.5578 215.577 38.9015C215.285 39.2451 215.139 39.7723 215.139 40.4829C215.139 41.4032 215.338 42.1168 215.735 42.6235C216.038 43.008 216.423 43.2002 216.89 43.2002C217.333 43.2002 217.698 43.0342 217.984 42.7022C218.27 42.3702 218.413 41.8488 218.413 41.1382C218.413 40.2121 218.211 39.4869 217.809 38.9626C217.511 38.5782 217.129 38.386 216.662 38.386ZM215.052 46.2058C214.778 46.5029 214.57 46.7796 214.43 47.0359C214.29 47.2921 214.22 47.528 214.22 47.7436C214.22 48.0232 214.39 48.2678 214.728 48.4775C215.312 48.8386 216.155 49.0192 217.257 49.0192C218.308 49.0192 219.081 48.8328 219.577 48.46C220.078 48.0931 220.329 47.6999 220.329 47.2805C220.329 46.9776 220.181 46.7621 219.883 46.6339C219.58 46.5058 218.979 46.4301 218.08 46.4068C216.767 46.3718 215.758 46.3048 215.052 46.2058Z" fill="white"/>
<path d="M223.305 41.2168C223.299 42.4051 223.588 43.3371 224.172 44.0128C224.755 44.6884 225.441 45.0263 226.228 45.0263C226.753 45.0263 227.209 44.8836 227.594 44.5982C227.985 44.3069 228.311 43.8118 228.574 43.1128L228.845 43.2876C228.723 44.0856 228.367 44.8137 227.777 45.4719C227.188 46.1243 226.45 46.4505 225.563 46.4505C224.6 46.4505 223.775 46.0777 223.086 45.3321C222.404 44.5807 222.062 43.573 222.062 42.309C222.062 40.9402 222.412 39.8742 223.113 39.1112C223.819 38.3423 224.703 37.9578 225.764 37.9578C226.663 37.9578 227.401 38.2549 227.979 38.849C228.556 39.4374 228.845 40.2266 228.845 41.2168H223.305ZM223.305 40.7101H227.016C226.987 40.1975 226.926 39.8364 226.832 39.6267C226.686 39.3005 226.468 39.0442 226.176 38.8578C225.89 38.6714 225.589 38.5782 225.274 38.5782C224.79 38.5782 224.355 38.7675 223.97 39.1461C223.591 39.5189 223.369 40.0402 223.305 40.7101Z" fill="white"/>
</svg>
