<svg width="248" height="61" viewBox="0 0 248 61" fill="none" xmlns="http://www.w3.org/2000/svg">
<path fill-rule="evenodd" clip-rule="evenodd" d="M16.5566 39.3794C10.377 55.5211 7.73111 60.1645 0 61H22.9682C14.1581 60.4852 8.85831 59.6074 16.5568 39.3794H16.5566Z" fill="#002395"/>
<path fill-rule="evenodd" clip-rule="evenodd" d="M21.8073 25.7844C25.446 23.1033 26.7281 25.7738 29.0187 31.7569L36.7308 51.9011C38.7999 57.3054 40.4178 60.8328 44.5286 60.9997H62.5658C55.6467 60.3954 53.7214 57.581 51.7501 52.4319L31.6777 0.00195312L21.8071 25.7843L21.8073 25.7844Z" fill="#002395"/>
<path fill-rule="evenodd" clip-rule="evenodd" d="M38.9072 12.3066L43.1363 23.3529C44.7061 13.134 52.1076 1.75666 63.7769 1.79714C74.6876 1.83486 82.8109 10.7285 85.1751 20.0249C85.1751 12.6552 85.1751 8.90347 85.1751 1.5338C84.0151 11.6969 75.829 -0.180296 63.7138 0.00208361C51.5986 0.184602 43.5633 6.17316 38.9074 12.3066H38.9072ZM55.0835 54.5639C69.6119 62.2389 83.8016 51.2644 85.1818 38.7298C84.8798 52.8301 76.0818 59.1723 65.6617 59.9657C59.7603 60.0095 56.7961 57.8328 55.0835 54.5641V54.5639Z" fill="#ED2939"/>
<path d="M93.9447 0.00219727H92.2222V61H93.9447V0.00219727Z" fill="#ED2939"/>
<path d="M111.516 13.9308L111.791 18.0258H111.516C111.15 16.7999 110.627 15.9176 109.948 15.3787C109.269 14.8398 108.454 14.5703 107.503 14.5703C106.705 14.5703 105.985 14.7746 105.341 15.1833C104.697 15.5859 104.189 16.2314 103.817 17.1197C103.451 18.008 103.268 19.1124 103.268 20.433C103.268 21.5227 103.442 22.4672 103.791 23.2667C104.139 24.0661 104.662 24.679 105.359 25.1054C106.062 25.5318 106.862 25.745 107.76 25.745C108.539 25.745 109.227 25.5792 109.824 25.2476C110.42 24.91 111.076 24.2438 111.791 23.2489L112.065 23.4266C111.463 24.4984 110.76 25.2831 109.957 25.7805C109.153 26.278 108.2 26.5267 107.095 26.5267C105.105 26.5267 103.563 25.7864 102.471 24.306C101.656 23.2045 101.248 21.9076 101.248 20.4153C101.248 19.2131 101.517 18.1087 102.054 17.102C102.592 16.0952 103.33 15.3165 104.269 14.7658C105.214 14.2091 106.245 13.9308 107.361 13.9308C108.229 13.9308 109.086 14.144 109.93 14.5703C110.178 14.7006 110.355 14.7658 110.462 14.7658C110.621 14.7658 110.76 14.7095 110.878 14.597C111.032 14.4371 111.141 14.215 111.206 13.9308H111.516Z" fill="url(#paint0_linear)"/>
<path d="M114.626 21.1792C114.62 22.3873 114.912 23.3348 115.503 24.0217C116.093 24.7087 116.787 25.0521 117.585 25.0521C118.116 25.0521 118.577 24.907 118.967 24.6169C119.362 24.3208 119.693 23.8174 119.959 23.1068L120.233 23.2844C120.109 24.0957 119.749 24.836 119.153 25.5052C118.556 26.1684 117.809 26.5 116.911 26.5C115.937 26.5 115.101 26.121 114.404 25.363C113.713 24.5991 113.368 23.5746 113.368 22.2896C113.368 20.8979 113.722 19.8142 114.431 19.0384C115.145 18.2567 116.04 17.8659 117.115 17.8659C118.025 17.8659 118.772 18.1679 119.356 18.7719C119.941 19.3701 120.233 20.1725 120.233 21.1792H114.626ZM114.626 20.664H118.382C118.352 20.1429 118.29 19.7757 118.196 19.5625C118.048 19.2309 117.827 18.9703 117.531 18.7808C117.242 18.5913 116.938 18.4966 116.619 18.4966C116.129 18.4966 115.689 18.689 115.299 19.074C114.915 19.453 114.691 19.983 114.626 20.664Z" fill="url(#paint1_linear)"/>
<path d="M123.689 19.598C124.639 18.4492 125.546 17.8748 126.408 17.8748C126.851 17.8748 127.232 17.9873 127.551 18.2123C127.87 18.4314 128.124 18.7956 128.313 19.3049C128.443 19.6602 128.508 20.205 128.508 20.9394V24.4126C128.508 24.9278 128.549 25.2772 128.632 25.4607C128.697 25.6088 128.8 25.7243 128.942 25.8072C129.09 25.8901 129.359 25.9315 129.748 25.9315V26.2513H125.735V25.9315H125.903C126.281 25.9315 126.544 25.8753 126.692 25.7628C126.845 25.6443 126.952 25.4726 127.011 25.2476C127.034 25.1587 127.046 24.8804 127.046 24.4126V21.0815C127.046 20.3412 126.949 19.8053 126.754 19.4737C126.565 19.1361 126.243 18.9674 125.788 18.9674C125.085 18.9674 124.386 19.3523 123.689 20.1221V24.4126C123.689 24.9633 123.721 25.3038 123.786 25.4341C123.869 25.6058 123.981 25.7331 124.123 25.8161C124.27 25.893 124.566 25.9315 125.009 25.9315V26.2513H120.995V25.9315H121.173C121.586 25.9315 121.864 25.8279 122.005 25.6206C122.153 25.4074 122.227 25.0048 122.227 24.4126V21.3924C122.227 20.4153 122.203 19.8201 122.156 19.6069C122.115 19.3937 122.047 19.2487 121.952 19.1717C121.864 19.0947 121.742 19.0562 121.589 19.0562C121.424 19.0562 121.226 19.1006 120.995 19.1894L120.862 18.8696L123.308 17.8748H123.689V19.598Z" fill="url(#paint2_linear)"/>
<path d="M132.752 15.4409V18.1146H134.648V18.7364H132.752V24.0128C132.752 24.5399 132.825 24.8952 132.973 25.0788C133.127 25.2624 133.322 25.3541 133.558 25.3541C133.753 25.3541 133.942 25.2949 134.125 25.1765C134.308 25.0521 134.45 24.8715 134.55 24.6346H134.896C134.689 25.215 134.396 25.6532 134.018 25.9493C133.641 26.2395 133.251 26.3846 132.849 26.3846C132.577 26.3846 132.312 26.3105 132.052 26.1625C131.792 26.0085 131.6 25.7924 131.476 25.514C131.352 25.2298 131.29 24.7945 131.29 24.2083V18.7364H130.005V18.4433C130.33 18.313 130.661 18.0939 130.997 17.7859C131.34 17.4721 131.644 17.102 131.91 16.6756C132.046 16.4505 132.235 16.039 132.477 15.4409H132.752Z" fill="url(#paint3_linear)"/>
<path d="M137.819 17.8748V19.7046C138.498 18.4847 139.195 17.8748 139.91 17.8748C140.235 17.8748 140.503 17.9754 140.716 18.1768C140.929 18.3722 141.035 18.6002 141.035 18.8608C141.035 19.0917 140.958 19.2871 140.805 19.447C140.651 19.6069 140.468 19.6869 140.255 19.6869C140.049 19.6869 139.815 19.5862 139.556 19.3849C139.302 19.1776 139.113 19.074 138.989 19.074C138.882 19.074 138.767 19.1332 138.643 19.2516C138.377 19.4944 138.103 19.8941 137.819 20.4508V24.3504C137.819 24.8004 137.875 25.141 137.987 25.3719C138.064 25.5318 138.2 25.665 138.395 25.7716C138.59 25.8782 138.87 25.9315 139.237 25.9315V26.2513H135.082V25.9315C135.495 25.9315 135.802 25.8664 136.003 25.7361C136.151 25.6414 136.254 25.4903 136.313 25.2831C136.343 25.1824 136.357 24.8952 136.357 24.4214V21.268C136.357 20.3205 136.337 19.7579 136.295 19.5803C136.26 19.3967 136.189 19.2635 136.083 19.1805C135.982 19.0976 135.855 19.0562 135.702 19.0562C135.519 19.0562 135.312 19.1006 135.082 19.1894L134.993 18.8696L137.447 17.8748H137.819Z" fill="url(#paint4_linear)"/>
<path d="M142.851 21.1792C142.845 22.3873 143.138 23.3348 143.728 24.0217C144.319 24.7087 145.013 25.0521 145.81 25.0521C146.342 25.0521 146.802 24.907 147.192 24.6169C147.588 24.3208 147.919 23.8174 148.184 23.1068L148.459 23.2844C148.335 24.0957 147.975 24.836 147.378 25.5052C146.782 26.1684 146.035 26.5 145.137 26.5C144.162 26.5 143.327 26.121 142.63 25.363C141.939 24.5991 141.593 23.5746 141.593 22.2896C141.593 20.8979 141.948 19.8142 142.656 19.0384C143.371 18.2567 144.266 17.8659 145.341 17.8659C146.25 17.8659 146.997 18.1679 147.582 18.7719C148.167 19.3701 148.459 20.1725 148.459 21.1792H142.851ZM142.851 20.664H146.608C146.578 20.1429 146.516 19.7757 146.421 19.5625C146.274 19.2309 146.052 18.9703 145.757 18.7808C145.468 18.5913 145.163 18.4966 144.845 18.4966C144.354 18.4966 143.914 18.689 143.524 19.074C143.141 19.453 142.916 19.983 142.851 20.664Z" fill="url(#paint5_linear)"/>
<path d="M159.817 25.3364C159.421 25.7509 159.034 26.05 158.656 26.2335C158.278 26.4112 157.871 26.5 157.434 26.5C156.548 26.5 155.774 26.1299 155.112 25.3897C154.451 24.6435 154.12 23.6871 154.12 22.5205C154.12 21.3539 154.486 20.2879 155.219 19.3227C155.951 18.3515 156.893 17.8659 158.045 17.8659C158.759 17.8659 159.35 18.0939 159.817 18.5499V17.0487C159.817 16.1189 159.793 15.5475 159.746 15.3343C159.704 15.1211 159.637 14.976 159.542 14.899C159.448 14.822 159.329 14.7835 159.188 14.7835C159.034 14.7835 158.83 14.8309 158.576 14.9257L158.461 14.6148L160.88 13.6199H161.278V23.0268C161.278 23.9803 161.299 24.5636 161.34 24.7768C161.388 24.984 161.459 25.1291 161.553 25.212C161.654 25.2949 161.769 25.3364 161.899 25.3364C162.058 25.3364 162.271 25.286 162.536 25.1854L162.634 25.4963L160.224 26.5H159.817V25.3364ZM159.817 24.7146V20.5219C159.781 20.1192 159.675 19.752 159.498 19.4204C159.321 19.0888 159.084 18.84 158.789 18.6742C158.5 18.5025 158.216 18.4166 157.939 18.4166C157.419 18.4166 156.955 18.6505 156.548 19.1184C156.01 19.7342 155.741 20.6344 155.741 21.8188C155.741 23.015 156.001 23.9329 156.521 24.5725C157.041 25.2061 157.62 25.5229 158.257 25.5229C158.795 25.5229 159.315 25.2535 159.817 24.7146Z" fill="url(#paint6_linear)"/>
<path d="M164.521 21.1792C164.515 22.3873 164.807 23.3348 165.398 24.0217C165.989 24.7087 166.683 25.0521 167.48 25.0521C168.012 25.0521 168.472 24.907 168.862 24.6169C169.258 24.3208 169.588 23.8174 169.854 23.1068L170.129 23.2844C170.005 24.0957 169.645 24.836 169.048 25.5052C168.452 26.1684 167.704 26.5 166.807 26.5C165.832 26.5 164.996 26.121 164.299 25.363C163.608 24.5991 163.263 23.5746 163.263 22.2896C163.263 20.8979 163.617 19.8142 164.326 19.0384C165.041 18.2567 165.936 17.8659 167.01 17.8659C167.92 17.8659 168.667 18.1679 169.252 18.7719C169.837 19.3701 170.129 20.1725 170.129 21.1792H164.521ZM164.521 20.664H168.277C168.248 20.1429 168.186 19.7757 168.091 19.5625C167.944 19.2309 167.722 18.9703 167.427 18.7808C167.137 18.5913 166.833 18.4966 166.514 18.4966C166.024 18.4966 165.584 18.689 165.194 19.074C164.81 19.453 164.586 19.983 164.521 20.664Z" fill="url(#paint7_linear)"/>
<path d="M178.926 18.7542V24.1017C178.926 24.8597 179.009 25.3393 179.174 25.5407C179.393 25.8012 179.685 25.9315 180.051 25.9315H180.787V26.2513H175.941V25.9315H176.304C176.54 25.9315 176.756 25.8723 176.951 25.7539C177.145 25.6354 177.278 25.4755 177.349 25.2742C177.426 25.0729 177.464 24.682 177.464 24.1017V18.7542H175.887V18.1146H177.464V17.5816C177.464 16.7703 177.594 16.0834 177.854 15.5208C178.114 14.9582 178.51 14.5052 179.041 14.1617C179.579 13.8123 180.181 13.6376 180.849 13.6376C181.469 13.6376 182.039 13.839 182.558 14.2417C182.901 14.5082 183.072 14.8072 183.072 15.1388C183.072 15.3165 182.996 15.4853 182.842 15.6452C182.688 15.7991 182.523 15.8761 182.346 15.8761C182.21 15.8761 182.065 15.8287 181.912 15.734C181.764 15.6333 181.581 15.4231 181.362 15.1033C181.144 14.7776 180.943 14.5585 180.76 14.446C180.577 14.3335 180.373 14.2772 180.149 14.2772C179.877 14.2772 179.647 14.3512 179.458 14.4993C179.269 14.6414 179.133 14.8664 179.05 15.1744C178.967 15.4764 178.926 16.261 178.926 17.5283V18.1146H181.017V18.7542H178.926Z" fill="url(#paint8_linear)"/>
<path d="M185.766 17.8748C186.994 17.8748 187.98 18.3426 188.725 19.2783C189.356 20.0777 189.672 20.9956 189.672 22.032C189.672 22.7603 189.498 23.4976 189.15 24.2438C188.801 24.9899 188.32 25.5525 187.706 25.9315C187.097 26.3105 186.418 26.5 185.668 26.5C184.445 26.5 183.474 26.0115 182.753 25.0344C182.145 24.2112 181.841 23.2874 181.841 22.2629C181.841 21.5167 182.024 20.7765 182.39 20.0422C182.762 19.3019 183.249 18.7571 183.852 18.4077C184.454 18.0524 185.092 17.8748 185.766 17.8748ZM185.491 18.4522C185.178 18.4522 184.862 18.5469 184.543 18.7364C184.23 18.92 183.976 19.2457 183.781 19.7135C183.586 20.1814 183.489 20.7824 183.489 21.5167C183.489 22.7011 183.722 23.7227 184.189 24.5813C184.661 25.44 185.281 25.8694 186.049 25.8694C186.622 25.8694 187.094 25.6325 187.466 25.1587C187.839 24.685 188.025 23.8707 188.025 22.7159C188.025 21.271 187.715 20.134 187.094 19.3049C186.675 18.7364 186.141 18.4522 185.491 18.4522Z" fill="url(#paint9_linear)"/>
<path d="M193.243 17.8748V19.7046C193.922 18.4847 194.619 17.8748 195.334 17.8748C195.658 17.8748 195.927 17.9754 196.14 18.1768C196.352 18.3722 196.459 18.6002 196.459 18.8608C196.459 19.0917 196.382 19.2871 196.228 19.447C196.075 19.6069 195.892 19.6869 195.679 19.6869C195.472 19.6869 195.239 19.5862 194.979 19.3849C194.725 19.1776 194.536 19.074 194.412 19.074C194.306 19.074 194.191 19.1332 194.067 19.2516C193.801 19.4944 193.526 19.8941 193.243 20.4508V24.3504C193.243 24.8004 193.299 25.141 193.411 25.3719C193.488 25.5318 193.624 25.665 193.819 25.7716C194.013 25.8782 194.294 25.9315 194.66 25.9315V26.2513H190.505V25.9315C190.919 25.9315 191.226 25.8664 191.427 25.7361C191.574 25.6414 191.678 25.4903 191.737 25.2831C191.766 25.1824 191.781 24.8952 191.781 24.4214V21.268C191.781 20.3205 191.76 19.7579 191.719 19.5803C191.684 19.3967 191.613 19.2635 191.506 19.1805C191.406 19.0976 191.279 19.0562 191.125 19.0562C190.942 19.0562 190.736 19.1006 190.505 19.1894L190.417 18.8696L192.871 17.8748H193.243Z" fill="url(#paint10_linear)"/>
<path d="M199.32 19.6069C199.911 19.0147 200.259 18.6742 200.366 18.5854C200.631 18.3604 200.918 18.1857 201.225 18.0613C201.532 17.9369 201.836 17.8748 202.137 17.8748C202.645 17.8748 203.082 18.0228 203.449 18.3189C203.815 18.615 204.06 19.0443 204.184 19.6069C204.792 18.8963 205.306 18.4314 205.725 18.2123C206.145 17.9873 206.576 17.8748 207.019 17.8748C207.45 17.8748 207.831 17.9873 208.162 18.2123C208.498 18.4314 208.764 18.7927 208.959 19.296C209.089 19.6395 209.154 20.1784 209.154 20.9127V24.4126C209.154 24.9218 209.192 25.2712 209.269 25.4607C209.328 25.591 209.437 25.7035 209.597 25.7983C209.756 25.8871 210.016 25.9315 210.377 25.9315V26.2513H206.372V25.9315H206.541C206.889 25.9315 207.161 25.8634 207.356 25.7272C207.491 25.6325 207.589 25.4815 207.648 25.2742C207.672 25.1735 207.683 24.8863 207.683 24.4126V20.9127C207.683 20.2495 207.604 19.7816 207.444 19.5092C207.214 19.1302 206.845 18.9407 206.337 18.9407C206.024 18.9407 205.708 19.0207 205.389 19.1805C205.076 19.3345 204.695 19.6247 204.246 20.0511L204.228 20.1488L204.246 20.5307V24.4126C204.246 24.9692 204.275 25.3157 204.335 25.4519C204.4 25.5881 204.518 25.7035 204.689 25.7983C204.86 25.8871 205.153 25.9315 205.566 25.9315V26.2513H201.464V25.9315C201.913 25.9315 202.22 25.8782 202.385 25.7716C202.557 25.665 202.675 25.5052 202.74 25.292C202.769 25.1913 202.784 24.8982 202.784 24.4126V20.9127C202.784 20.2495 202.687 19.7727 202.492 19.4826C202.232 19.1036 201.869 18.9141 201.402 18.9141C201.083 18.9141 200.767 18.9999 200.454 19.1717C199.964 19.4322 199.586 19.7254 199.32 20.0511V24.4126C199.32 24.9455 199.356 25.292 199.427 25.4519C199.503 25.6117 199.613 25.7331 199.754 25.8161C199.902 25.893 200.197 25.9315 200.64 25.9315V26.2513H196.627V25.9315C196.999 25.9315 197.259 25.893 197.407 25.8161C197.554 25.7331 197.666 25.6058 197.743 25.4341C197.82 25.2564 197.858 24.9159 197.858 24.4126V21.3036C197.858 20.4093 197.832 19.832 197.779 19.5714C197.737 19.376 197.672 19.2427 197.584 19.1717C197.495 19.0947 197.374 19.0562 197.221 19.0562C197.055 19.0562 196.857 19.1006 196.627 19.1894L196.494 18.8696L198.939 17.8748H199.32V19.6069Z" fill="url(#paint11_linear)"/>
<path d="M215.63 25.0788C214.797 25.7243 214.275 26.0973 214.062 26.198C213.743 26.3461 213.403 26.4201 213.043 26.4201C212.482 26.4201 212.018 26.2276 211.652 25.8427C211.292 25.4578 211.112 24.9515 211.112 24.3237C211.112 23.927 211.2 23.5835 211.378 23.2933C211.62 22.8906 212.039 22.5116 212.636 22.1563C213.238 21.801 214.236 21.3687 215.63 20.8594V20.5396C215.63 19.7283 215.5 19.1717 215.24 18.8696C214.986 18.5676 214.614 18.4166 214.124 18.4166C213.752 18.4166 213.457 18.5173 213.238 18.7186C213.014 18.92 212.901 19.1509 212.901 19.4115L212.919 19.9267C212.919 20.1991 212.848 20.4093 212.707 20.5574C212.571 20.7054 212.391 20.7795 212.166 20.7795C211.948 20.7795 211.767 20.7025 211.626 20.5485C211.49 20.3945 211.422 20.1843 211.422 19.9178C211.422 19.4085 211.682 18.9407 212.202 18.5143C212.721 18.088 213.451 17.8748 214.39 17.8748C215.11 17.8748 215.701 17.9962 216.162 18.239C216.51 18.4225 216.767 18.7098 216.932 19.1006C217.039 19.3552 217.092 19.8764 217.092 20.664V23.4266C217.092 24.2023 217.107 24.679 217.136 24.8567C217.166 25.0284 217.213 25.1439 217.278 25.2031C217.349 25.2624 217.429 25.292 217.517 25.292C217.612 25.292 217.694 25.2712 217.765 25.2298C217.889 25.1528 218.128 24.9366 218.483 24.5813V25.0788C217.821 25.9671 217.189 26.4112 216.587 26.4112C216.298 26.4112 216.067 26.3105 215.896 26.1092C215.725 25.9078 215.636 25.5644 215.63 25.0788ZM215.63 24.5014V21.4013C214.738 21.7566 214.162 22.0083 213.903 22.1563C213.436 22.4169 213.102 22.6893 212.901 22.9735C212.701 23.2578 212.6 23.5687 212.6 23.9062C212.6 24.3326 212.727 24.6879 212.981 24.9722C213.235 25.2505 213.528 25.3897 213.858 25.3897C214.307 25.3897 214.898 25.0936 215.63 24.5014Z" fill="url(#paint12_linear)"/>
<path d="M221.451 15.4409V18.1146H223.347V18.7364H221.451V24.0128C221.451 24.5399 221.524 24.8952 221.672 25.0788C221.826 25.2624 222.021 25.3541 222.257 25.3541C222.452 25.3541 222.641 25.2949 222.824 25.1765C223.007 25.0521 223.149 24.8715 223.249 24.6346H223.595C223.388 25.215 223.096 25.6532 222.718 25.9493C222.34 26.2395 221.95 26.3846 221.548 26.3846C221.276 26.3846 221.011 26.3105 220.751 26.1625C220.491 26.0085 220.299 25.7924 220.175 25.514C220.051 25.2298 219.989 24.7945 219.989 24.2083V18.7364H218.704V18.4433C219.029 18.313 219.36 18.0939 219.697 17.7859C220.039 17.4721 220.343 17.102 220.609 16.6756C220.745 16.4505 220.934 16.039 221.176 15.4409H221.451Z" fill="url(#paint13_linear)"/>
<path d="M226.208 13.6199C226.456 13.6199 226.666 13.7087 226.837 13.8864C227.014 14.0581 227.103 14.2683 227.103 14.517C227.103 14.7658 227.014 14.979 226.837 15.1566C226.666 15.3343 226.456 15.4231 226.208 15.4231C225.96 15.4231 225.747 15.3343 225.57 15.1566C225.393 14.979 225.304 14.7658 225.304 14.517C225.304 14.2683 225.39 14.0581 225.561 13.8864C225.739 13.7087 225.954 13.6199 226.208 13.6199ZM226.943 17.8748V24.4126C226.943 24.9218 226.979 25.2624 227.05 25.4341C227.127 25.5999 227.236 25.7243 227.378 25.8072C227.525 25.8901 227.791 25.9315 228.175 25.9315V26.2513H224.232V25.9315C224.628 25.9315 224.894 25.893 225.03 25.8161C225.166 25.7391 225.272 25.6117 225.349 25.4341C225.431 25.2564 225.473 24.9159 225.473 24.4126V21.2769C225.473 20.3945 225.446 19.8231 225.393 19.5625C225.352 19.373 225.287 19.2427 225.198 19.1717C225.11 19.0947 224.988 19.0562 224.835 19.0562C224.67 19.0562 224.469 19.1006 224.232 19.1894L224.108 18.8696L226.554 17.8748H226.943Z" fill="url(#paint14_linear)"/>
<path d="M233.163 17.8748C234.391 17.8748 235.377 18.3426 236.122 19.2783C236.754 20.0777 237.07 20.9956 237.07 22.032C237.07 22.7603 236.895 23.4976 236.547 24.2438C236.198 24.9899 235.717 25.5525 235.103 25.9315C234.494 26.3105 233.815 26.5 233.065 26.5C231.843 26.5 230.871 26.0115 230.15 25.0344C229.542 24.2112 229.238 23.2874 229.238 22.2629C229.238 21.5167 229.421 20.7765 229.787 20.0422C230.159 19.3019 230.647 18.7571 231.249 18.4077C231.851 18.0524 232.489 17.8748 233.163 17.8748ZM232.888 18.4522C232.575 18.4522 232.259 18.5469 231.94 18.7364C231.627 18.92 231.373 19.2457 231.178 19.7135C230.983 20.1814 230.886 20.7824 230.886 21.5167C230.886 22.7011 231.119 23.7227 231.586 24.5813C232.058 25.44 232.678 25.8694 233.446 25.8694C234.019 25.8694 234.492 25.6325 234.864 25.1587C235.236 24.685 235.422 23.8707 235.422 22.7159C235.422 21.271 235.112 20.134 234.492 19.3049C234.072 18.7364 233.538 18.4522 232.888 18.4522Z" fill="url(#paint15_linear)"/>
<path d="M240.631 19.598C241.582 18.4492 242.488 17.8748 243.351 17.8748C243.794 17.8748 244.175 17.9873 244.494 18.2123C244.813 18.4314 245.067 18.7956 245.256 19.3049C245.385 19.6602 245.45 20.205 245.45 20.9394V24.4126C245.45 24.9278 245.492 25.2772 245.574 25.4607C245.639 25.6088 245.743 25.7243 245.885 25.8072C246.032 25.8901 246.301 25.9315 246.691 25.9315V26.2513H242.677V25.9315H242.846C243.224 25.9315 243.487 25.8753 243.634 25.7628C243.788 25.6443 243.894 25.4726 243.953 25.2476C243.977 25.1587 243.989 24.8804 243.989 24.4126V21.0815C243.989 20.3412 243.891 19.8053 243.696 19.4737C243.507 19.1361 243.185 18.9674 242.731 18.9674C242.028 18.9674 241.328 19.3523 240.631 20.1221V24.4126C240.631 24.9633 240.663 25.3038 240.728 25.4341C240.811 25.6058 240.923 25.7331 241.065 25.8161C241.213 25.893 241.508 25.9315 241.951 25.9315V26.2513H237.938V25.9315H238.115C238.528 25.9315 238.806 25.8279 238.948 25.6206C239.095 25.4074 239.169 25.0048 239.169 24.4126V21.3924C239.169 20.4153 239.146 19.8201 239.098 19.6069C239.057 19.3937 238.989 19.2487 238.895 19.1717C238.806 19.0947 238.685 19.0562 238.531 19.0562C238.366 19.0562 238.168 19.1006 237.938 19.1894L237.805 18.8696L240.25 17.8748H240.631V19.598Z" fill="url(#paint16_linear)"/>
<path d="M102.524 41.9039C102.518 43.112 102.81 44.0595 103.401 44.7464C103.991 45.4334 104.685 45.7768 105.483 45.7768C106.014 45.7768 106.475 45.6317 106.865 45.3416C107.261 45.0455 107.591 44.5421 107.857 43.8315L108.132 44.0091C108.008 44.8204 107.647 45.5607 107.051 46.2299C106.454 46.8931 105.707 47.2247 104.809 47.2247C103.835 47.2247 102.999 46.8457 102.302 46.0877C101.611 45.3238 101.266 44.2993 101.266 43.0143C101.266 41.6226 101.62 40.5389 102.329 39.7631C103.044 38.9814 103.938 38.5906 105.013 38.5906C105.923 38.5906 106.67 38.8926 107.255 39.4966C107.839 40.0948 108.132 40.8972 108.132 41.9039H102.524ZM102.524 41.3887H106.28C106.251 40.8676 106.189 40.5004 106.094 40.2872C105.946 39.9556 105.725 39.695 105.43 39.5055C105.14 39.316 104.836 39.2213 104.517 39.2213C104.027 39.2213 103.587 39.4137 103.197 39.7987C102.813 40.1777 102.589 40.7077 102.524 41.3887Z" fill="url(#paint17_linear)"/>
<path d="M111.578 36.1656V38.8393H113.474V39.4611H111.578V44.7375C111.578 45.2646 111.652 45.6199 111.799 45.8035C111.953 45.9871 112.148 46.0788 112.384 46.0788C112.579 46.0788 112.768 46.0196 112.951 45.9012C113.134 45.7768 113.276 45.5962 113.376 45.3593H113.722C113.515 45.9397 113.223 46.3779 112.845 46.674C112.467 46.9642 112.077 47.1093 111.675 47.1093C111.404 47.1093 111.138 47.0352 110.878 46.8872C110.618 46.7332 110.426 46.5171 110.302 46.2387C110.178 45.9545 110.116 45.5192 110.116 44.933V39.4611H108.832V39.168C109.156 39.0377 109.487 38.8186 109.824 38.5106C110.166 38.1968 110.471 37.8267 110.736 37.4003C110.872 37.1753 111.061 36.7637 111.303 36.1656H111.578Z" fill="url(#paint18_linear)"/>
<path d="M124.539 46.0611C124.143 46.4756 123.757 46.7747 123.379 46.9583C123.001 47.1359 122.593 47.2247 122.156 47.2247C121.27 47.2247 120.496 46.8546 119.835 46.1144C119.173 45.3682 118.843 44.4118 118.843 43.2452C118.843 42.0786 119.209 41.0127 119.941 40.0474C120.673 39.0762 121.616 38.5906 122.767 38.5906C123.482 38.5906 124.072 38.8186 124.539 39.2746V37.7734C124.539 36.8436 124.515 36.2722 124.468 36.059C124.427 35.8458 124.359 35.7007 124.264 35.6237C124.17 35.5467 124.052 35.5082 123.91 35.5082C123.757 35.5082 123.553 35.5556 123.299 35.6504L123.184 35.3395L125.602 34.3446H126.001V43.7515C126.001 44.705 126.022 45.2883 126.063 45.5015C126.11 45.7087 126.181 45.8538 126.275 45.9367C126.376 46.0196 126.491 46.0611 126.621 46.0611C126.78 46.0611 126.993 46.0107 127.259 45.9101L127.356 46.221L124.947 47.2247H124.539V46.0611ZM124.539 45.4393V41.2466C124.504 40.8439 124.397 40.4767 124.22 40.1451C124.043 39.8135 123.807 39.5647 123.511 39.3989C123.222 39.2272 122.938 39.1413 122.661 39.1413C122.141 39.1413 121.678 39.3752 121.27 39.8431C120.733 40.459 120.464 41.3591 120.464 42.5435C120.464 43.7397 120.724 44.6576 121.243 45.2972C121.763 45.9308 122.342 46.2476 122.98 46.2476C123.517 46.2476 124.037 45.9782 124.539 45.4393Z" fill="url(#paint19_linear)"/>
<path d="M129.421 39.2568V38.8393C130.029 38.4781 130.442 38.1405 130.661 37.8267C130.814 37.6016 130.891 37.3322 130.891 37.0183C130.891 36.8347 130.859 36.6985 130.794 36.6097C130.723 36.5209 130.646 36.4765 130.563 36.4765C130.498 36.4765 130.413 36.4972 130.306 36.5386C130.153 36.5919 130.026 36.6186 129.926 36.6186C129.689 36.6186 129.48 36.5298 129.297 36.3521C129.113 36.1745 129.022 35.9524 129.022 35.6859C129.022 35.3898 129.113 35.1588 129.297 34.993C129.545 34.768 129.84 34.6555 130.182 34.6555C130.578 34.6555 130.933 34.8243 131.246 35.1618C131.564 35.4934 131.724 35.908 131.724 36.4054C131.724 37.1042 131.461 37.7408 130.935 38.3152C130.587 38.6942 130.082 39.0081 129.421 39.2568Z" fill="url(#paint20_linear)"/>
<path d="M138.519 45.8035C137.686 46.449 137.164 46.8221 136.951 46.9227C136.632 47.0708 136.292 47.1448 135.932 47.1448C135.371 47.1448 134.907 46.9523 134.541 46.5674C134.181 46.1825 134.001 45.6762 134.001 45.0484C134.001 44.6517 134.089 44.3082 134.267 44.018C134.509 43.6153 134.928 43.2363 135.525 42.881C136.127 42.5257 137.125 42.0934 138.519 41.5841V41.2643C138.519 40.453 138.389 39.8964 138.129 39.5944C137.875 39.2923 137.503 39.1413 137.013 39.1413C136.641 39.1413 136.346 39.242 136.127 39.4433C135.903 39.6447 135.79 39.8756 135.79 40.1362L135.808 40.6514C135.808 40.9238 135.737 41.1341 135.595 41.2821C135.46 41.4301 135.279 41.5042 135.055 41.5042C134.837 41.5042 134.656 41.4272 134.515 41.2732C134.379 41.1192 134.311 40.909 134.311 40.6425C134.311 40.1332 134.571 39.6654 135.09 39.239C135.61 38.8127 136.34 38.5995 137.279 38.5995C137.999 38.5995 138.59 38.7209 139.051 38.9637C139.399 39.1473 139.656 39.4345 139.821 39.8253C139.928 40.08 139.981 40.6011 139.981 41.3887V44.1513C139.981 44.927 139.996 45.4038 140.025 45.5814C140.055 45.7531 140.102 45.8686 140.167 45.9278C140.238 45.9871 140.317 46.0167 140.406 46.0167C140.501 46.0167 140.583 45.9959 140.654 45.9545C140.778 45.8775 141.017 45.6614 141.372 45.306V45.8035C140.71 46.6918 140.078 47.1359 139.476 47.1359C139.186 47.1359 138.956 47.0352 138.785 46.8339C138.614 46.6325 138.525 46.2891 138.519 45.8035ZM138.519 45.2261V42.126C137.627 42.4813 137.051 42.733 136.791 42.881C136.325 43.1416 135.991 43.414 135.79 43.6982C135.59 43.9825 135.489 44.2934 135.489 44.6309C135.489 45.0573 135.616 45.4126 135.87 45.6969C136.124 45.9752 136.416 46.1144 136.747 46.1144C137.196 46.1144 137.787 45.8183 138.519 45.2261Z" fill="url(#paint21_linear)"/>
<path d="M141.398 39.6477L143.897 38.635H144.233V40.5359C144.653 39.8194 145.072 39.319 145.491 39.0347C145.917 38.7446 146.362 38.5995 146.829 38.5995C147.644 38.5995 148.323 38.9193 148.867 39.5588C149.534 40.3405 149.868 41.3591 149.868 42.6145C149.868 44.018 149.466 45.1787 148.663 46.0966C148.001 46.8487 147.169 47.2247 146.165 47.2247C145.728 47.2247 145.35 47.1626 145.031 47.0382C144.794 46.9494 144.529 46.7717 144.233 46.5052V48.9835C144.233 49.5402 144.266 49.8926 144.331 50.0406C144.402 50.1946 144.52 50.316 144.685 50.4048C144.856 50.4936 145.163 50.5381 145.606 50.5381V50.8667H141.354V50.5381H141.575C141.9 50.544 142.178 50.4818 142.408 50.3515C142.52 50.2864 142.606 50.1798 142.665 50.0317C142.73 49.8896 142.763 49.5224 142.763 48.9303V41.2377C142.763 40.7106 142.739 40.376 142.692 40.2339C142.644 40.0918 142.568 39.9852 142.461 39.9141C142.361 39.8431 142.222 39.8075 142.045 39.8075C141.903 39.8075 141.723 39.849 141.505 39.9319L141.398 39.6477ZM144.233 41.06V44.098C144.233 44.7553 144.26 45.1876 144.313 45.3949C144.396 45.7383 144.596 46.0404 144.915 46.3009C145.24 46.5615 145.648 46.6918 146.138 46.6918C146.729 46.6918 147.207 46.4608 147.573 45.9989C148.052 45.3949 148.291 44.5451 148.291 43.4495C148.291 42.2059 148.019 41.2495 147.476 40.5804C147.098 40.1184 146.649 39.8875 146.129 39.8875C145.846 39.8875 145.565 39.9586 145.287 40.1007C145.075 40.2073 144.723 40.5271 144.233 41.06Z" fill="url(#paint22_linear)"/>
<path d="M150.47 39.6477L152.968 38.635H153.305V40.5359C153.724 39.8194 154.144 39.319 154.563 39.0347C154.988 38.7446 155.434 38.5995 155.901 38.5995C156.716 38.5995 157.395 38.9193 157.939 39.5588C158.606 40.3405 158.94 41.3591 158.94 42.6145C158.94 44.018 158.538 45.1787 157.735 46.0966C157.073 46.8487 156.241 47.2247 155.236 47.2247C154.799 47.2247 154.421 47.1626 154.102 47.0382C153.866 46.9494 153.6 46.7717 153.305 46.5052V48.9835C153.305 49.5402 153.338 49.8926 153.403 50.0406C153.473 50.1946 153.592 50.316 153.757 50.4048C153.928 50.4936 154.235 50.5381 154.678 50.5381V50.8667H150.426V50.5381H150.647C150.972 50.544 151.25 50.4818 151.48 50.3515C151.592 50.2864 151.678 50.1798 151.737 50.0317C151.802 49.8896 151.834 49.5224 151.834 48.9303V41.2377C151.834 40.7106 151.811 40.376 151.764 40.2339C151.716 40.0918 151.64 39.9852 151.533 39.9141C151.433 39.8431 151.294 39.8075 151.117 39.8075C150.975 39.8075 150.795 39.849 150.576 39.9319L150.47 39.6477ZM153.305 41.06V44.098C153.305 44.7553 153.332 45.1876 153.385 45.3949C153.468 45.7383 153.668 46.0404 153.987 46.3009C154.312 46.5615 154.72 46.6918 155.21 46.6918C155.8 46.6918 156.279 46.4608 156.645 45.9989C157.123 45.3949 157.363 44.5451 157.363 43.4495C157.363 42.2059 157.091 41.2495 156.548 40.5804C156.17 40.1184 155.721 39.8875 155.201 39.8875C154.918 39.8875 154.637 39.9586 154.359 40.1007C154.147 40.2073 153.795 40.5271 153.305 41.06Z" fill="url(#paint23_linear)"/>
<path d="M162.501 38.5995V40.4293C163.18 39.2094 163.877 38.5995 164.592 38.5995C164.917 38.5995 165.185 38.7001 165.398 38.9015C165.611 39.0969 165.717 39.3249 165.717 39.5855C165.717 39.8164 165.64 40.0119 165.487 40.1717C165.333 40.3316 165.15 40.4116 164.937 40.4116C164.731 40.4116 164.497 40.3109 164.237 40.1096C163.984 39.9023 163.795 39.7987 163.67 39.7987C163.564 39.7987 163.449 39.8579 163.325 39.9763C163.059 40.2191 162.785 40.6188 162.501 41.1755V45.0751C162.501 45.5252 162.557 45.8657 162.669 46.0966C162.746 46.2565 162.882 46.3898 163.077 46.4963C163.272 46.6029 163.552 46.6562 163.919 46.6562V46.976H159.764V46.6562C160.177 46.6562 160.484 46.5911 160.685 46.4608C160.833 46.3661 160.936 46.2151 160.995 46.0078C161.025 45.9071 161.039 45.6199 161.039 45.1462V41.9927C161.039 41.0452 161.019 40.4826 160.977 40.305C160.942 40.1214 160.871 39.9882 160.765 39.9053C160.664 39.8223 160.537 39.7809 160.384 39.7809C160.201 39.7809 159.994 39.8253 159.764 39.9141L159.675 39.5944L162.129 38.5995H162.501Z" fill="url(#paint24_linear)"/>
<path d="M167.533 41.9039C167.527 43.112 167.82 44.0595 168.41 44.7464C169.001 45.4334 169.695 45.7768 170.492 45.7768C171.024 45.7768 171.484 45.6317 171.874 45.3416C172.27 45.0455 172.601 44.5421 172.866 43.8315L173.141 44.0091C173.017 44.8204 172.657 45.5607 172.06 46.2299C171.464 46.8931 170.717 47.2247 169.819 47.2247C168.844 47.2247 168.009 46.8457 167.312 46.0877C166.621 45.3238 166.275 44.2993 166.275 43.0143C166.275 41.6226 166.629 40.5389 167.338 39.7631C168.053 38.9814 168.948 38.5906 170.023 38.5906C170.932 38.5906 171.679 38.8926 172.264 39.4966C172.849 40.0948 173.141 40.8972 173.141 41.9039H167.533ZM167.533 41.3887H171.289C171.26 40.8676 171.198 40.5004 171.103 40.2872C170.956 39.9556 170.734 39.695 170.439 39.5055C170.15 39.316 169.845 39.2213 169.526 39.2213C169.036 39.2213 168.596 39.4137 168.206 39.7987C167.823 40.1777 167.598 40.7077 167.533 41.3887Z" fill="url(#paint25_linear)"/>
<path d="M176.596 40.3228C177.547 39.1739 178.454 38.5995 179.316 38.5995C179.759 38.5995 180.14 38.712 180.459 38.937C180.778 39.1561 181.032 39.5203 181.221 40.0296C181.351 40.3849 181.416 40.9297 181.416 41.6641V45.1373C181.416 45.6525 181.457 46.0019 181.54 46.1854C181.605 46.3335 181.708 46.449 181.85 46.5319C181.997 46.6148 182.266 46.6562 182.656 46.6562V46.976H178.643V46.6562H178.811C179.189 46.6562 179.452 46.6 179.599 46.4875C179.753 46.369 179.859 46.1973 179.918 45.9723C179.942 45.8834 179.954 45.6051 179.954 45.1373V41.8062C179.954 41.066 179.856 40.53 179.661 40.1984C179.472 39.8608 179.151 39.6921 178.696 39.6921C177.993 39.6921 177.293 40.077 176.596 40.8468V45.1373C176.596 45.688 176.629 46.0285 176.694 46.1588C176.776 46.3305 176.889 46.4579 177.03 46.5408C177.178 46.6177 177.473 46.6562 177.916 46.6562V46.976H173.903V46.6562H174.08C174.494 46.6562 174.771 46.5526 174.913 46.3453C175.061 46.1321 175.134 45.7295 175.134 45.1373V42.1171C175.134 41.14 175.111 40.5448 175.064 40.3316C175.022 40.1184 174.954 39.9734 174.86 39.8964C174.771 39.8194 174.65 39.7809 174.497 39.7809C174.331 39.7809 174.133 39.8253 173.903 39.9141L173.77 39.5944L176.215 38.5995H176.596V40.3228Z" fill="url(#paint26_linear)"/>
<path d="M185.659 36.1656V38.8393H187.555V39.4611H185.659V44.7375C185.659 45.2646 185.733 45.6199 185.881 45.8035C186.034 45.9871 186.229 46.0788 186.465 46.0788C186.66 46.0788 186.849 46.0196 187.032 45.9012C187.215 45.7768 187.357 45.5962 187.458 45.3593H187.803C187.596 45.9397 187.304 46.3779 186.926 46.674C186.548 46.9642 186.158 47.1093 185.757 47.1093C185.485 47.1093 185.219 47.0352 184.959 46.8872C184.699 46.7332 184.507 46.5171 184.383 46.2387C184.259 45.9545 184.197 45.5192 184.197 44.933V39.4611H182.913V39.168C183.238 39.0377 183.568 38.8186 183.905 38.5106C184.248 38.1968 184.552 37.8267 184.818 37.4003C184.953 37.1753 185.142 36.7637 185.385 36.1656H185.659Z" fill="url(#paint27_linear)"/>
<path d="M190.417 34.3446C190.665 34.3446 190.874 34.4334 191.046 34.6111C191.223 34.7828 191.311 34.993 191.311 35.2418C191.311 35.4905 191.223 35.7037 191.046 35.8813C190.874 36.059 190.665 36.1478 190.417 36.1478C190.169 36.1478 189.956 36.059 189.779 35.8813C189.602 35.7037 189.513 35.4905 189.513 35.2418C189.513 34.993 189.599 34.7828 189.77 34.6111C189.947 34.4334 190.163 34.3446 190.417 34.3446ZM191.152 38.5995V45.1373C191.152 45.6466 191.187 45.9871 191.258 46.1588C191.335 46.3246 191.444 46.449 191.586 46.5319C191.734 46.6148 191.999 46.6562 192.383 46.6562V46.976H188.441V46.6562C188.837 46.6562 189.103 46.6177 189.238 46.5408C189.374 46.4638 189.481 46.3365 189.557 46.1588C189.64 45.9811 189.681 45.6406 189.681 45.1373V42.0016C189.681 41.1192 189.655 40.5478 189.602 40.2872C189.56 40.0977 189.495 39.9674 189.407 39.8964C189.318 39.8194 189.197 39.7809 189.043 39.7809C188.878 39.7809 188.677 39.8253 188.441 39.9141L188.317 39.5944L190.762 38.5995H191.152Z" fill="url(#paint28_linear)"/>
<path d="M198.647 38.5995V41.3709H198.355C198.13 40.5004 197.841 39.9082 197.486 39.5944C197.138 39.2805 196.692 39.1236 196.149 39.1236C195.735 39.1236 195.401 39.2331 195.147 39.4522C194.894 39.6713 194.767 39.9141 194.767 40.1806C194.767 40.5123 194.861 40.7965 195.05 41.0334C195.233 41.2762 195.605 41.5338 196.166 41.8062L197.46 42.4369C198.659 43.0231 199.258 43.796 199.258 44.7553C199.258 45.4955 198.978 46.0937 198.417 46.5496C197.861 46.9997 197.238 47.2247 196.547 47.2247C196.051 47.2247 195.484 47.1359 194.846 46.9583C194.651 46.899 194.492 46.8694 194.368 46.8694C194.232 46.8694 194.126 46.9464 194.049 47.1004H193.757V44.1957H194.049C194.214 45.0248 194.53 45.6495 194.997 46.07C195.463 46.4904 195.986 46.7006 196.565 46.7006C196.972 46.7006 197.303 46.5822 197.557 46.3453C197.817 46.1025 197.947 45.8124 197.947 45.4748C197.947 45.0662 197.802 44.7227 197.513 44.4444C197.229 44.1661 196.659 43.8137 195.803 43.3873C194.947 42.961 194.386 42.576 194.12 42.2326C193.854 41.895 193.721 41.4686 193.721 40.9534C193.721 40.2843 193.949 39.7246 194.403 39.2746C194.864 38.8245 195.458 38.5995 196.184 38.5995C196.503 38.5995 196.89 38.6676 197.345 38.8038C197.646 38.8926 197.847 38.937 197.947 38.937C198.042 38.937 198.115 38.9163 198.168 38.8748C198.222 38.8334 198.284 38.7416 198.355 38.5995H198.647Z" fill="url(#paint29_linear)"/>
<path d="M205.717 38.5995V41.3709H205.424C205.2 40.5004 204.91 39.9082 204.556 39.5944C204.208 39.2805 203.762 39.1236 203.218 39.1236C202.805 39.1236 202.471 39.2331 202.217 39.4522C201.963 39.6713 201.836 39.9141 201.836 40.1806C201.836 40.5123 201.931 40.7965 202.12 41.0334C202.303 41.2762 202.675 41.5338 203.236 41.8062L204.529 42.4369C205.728 43.0231 206.328 43.796 206.328 44.7553C206.328 45.4955 206.047 46.0937 205.486 46.5496C204.931 46.9997 204.308 47.2247 203.617 47.2247C203.121 47.2247 202.554 47.1359 201.916 46.9583C201.721 46.899 201.562 46.8694 201.438 46.8694C201.302 46.8694 201.195 46.9464 201.119 47.1004H200.826V44.1957H201.119C201.284 45.0248 201.6 45.6495 202.067 46.07C202.533 46.4904 203.056 46.7006 203.635 46.7006C204.042 46.7006 204.373 46.5822 204.627 46.3453C204.887 46.1025 205.017 45.8124 205.017 45.4748C205.017 45.0662 204.872 44.7227 204.583 44.4444C204.299 44.1661 203.729 43.8137 202.873 43.3873C202.016 42.961 201.455 42.576 201.19 42.2326C200.924 41.895 200.791 41.4686 200.791 40.9534C200.791 40.2843 201.018 39.7246 201.473 39.2746C201.934 38.8245 202.527 38.5995 203.254 38.5995C203.573 38.5995 203.96 38.6676 204.414 38.8038C204.715 38.8926 204.916 38.937 205.017 38.937C205.111 38.937 205.185 38.9163 205.238 38.8748C205.291 38.8334 205.353 38.7416 205.424 38.5995H205.717Z" fill="url(#paint30_linear)"/>
<path d="M212.14 45.8035C211.307 46.449 210.784 46.8221 210.571 46.9227C210.253 47.0708 209.913 47.1448 209.553 47.1448C208.992 47.1448 208.528 46.9523 208.162 46.5674C207.801 46.1825 207.621 45.6762 207.621 45.0484C207.621 44.6517 207.71 44.3082 207.887 44.018C208.129 43.6153 208.549 43.2363 209.145 42.881C209.748 42.5257 210.746 42.0934 212.14 41.5841V41.2643C212.14 40.453 212.01 39.8964 211.75 39.5944C211.496 39.2923 211.124 39.1413 210.633 39.1413C210.261 39.1413 209.966 39.242 209.748 39.4433C209.523 39.6447 209.411 39.8756 209.411 40.1362L209.429 40.6514C209.429 40.9238 209.358 41.1341 209.216 41.2821C209.08 41.4301 208.9 41.5042 208.676 41.5042C208.457 41.5042 208.277 41.4272 208.135 41.2732C207.999 41.1192 207.931 40.909 207.931 40.6425C207.931 40.1332 208.191 39.6654 208.711 39.239C209.231 38.8127 209.96 38.5995 210.899 38.5995C211.62 38.5995 212.21 38.7209 212.671 38.9637C213.02 39.1473 213.276 39.4345 213.442 39.8253C213.548 40.08 213.601 40.6011 213.601 41.3887V44.1513C213.601 44.927 213.616 45.4038 213.646 45.5814C213.675 45.7531 213.722 45.8686 213.787 45.9278C213.858 45.9871 213.938 46.0167 214.027 46.0167C214.121 46.0167 214.204 45.9959 214.275 45.9545C214.399 45.8775 214.638 45.6614 214.992 45.306V45.8035C214.331 46.6918 213.699 47.1359 213.096 47.1359C212.807 47.1359 212.577 47.0352 212.405 46.8339C212.234 46.6325 212.145 46.2891 212.14 45.8035ZM212.14 45.2261V42.126C211.248 42.4813 210.672 42.733 210.412 42.881C209.945 43.1416 209.612 43.414 209.411 43.6982C209.21 43.9825 209.11 44.2934 209.11 44.6309C209.11 45.0573 209.237 45.4126 209.491 45.6969C209.745 45.9752 210.037 46.1144 210.368 46.1144C210.817 46.1144 211.407 45.8183 212.14 45.2261Z" fill="url(#paint31_linear)"/>
<path d="M217.774 44.0091C217.278 43.7663 216.897 43.4288 216.631 42.9965C216.365 42.5583 216.233 42.0756 216.233 41.5486C216.233 40.7432 216.534 40.0503 217.136 39.47C217.745 38.8896 218.521 38.5995 219.466 38.5995C220.24 38.5995 220.91 38.789 221.477 39.168H223.196C223.45 39.168 223.598 39.1769 223.639 39.1946C223.68 39.2065 223.71 39.2302 223.727 39.2657C223.763 39.319 223.781 39.4137 223.781 39.5499C223.781 39.7039 223.766 39.8105 223.736 39.8697C223.719 39.8993 223.686 39.923 223.639 39.9408C223.598 39.9586 223.45 39.9674 223.196 39.9674H222.142C222.472 40.3938 222.638 40.9386 222.638 41.6019C222.638 42.3599 222.348 43.0083 221.77 43.5472C221.191 44.0861 220.414 44.3556 219.44 44.3556C219.038 44.3556 218.628 44.2964 218.208 44.1779C217.948 44.4029 217.771 44.6013 217.677 44.7731C217.588 44.9389 217.544 45.081 217.544 45.1994C217.544 45.3001 217.591 45.3978 217.685 45.4926C217.786 45.5873 217.978 45.6554 218.261 45.6969C218.427 45.7206 218.84 45.7413 219.502 45.7591C220.718 45.7887 221.507 45.8301 221.867 45.8834C222.416 45.9604 222.853 46.1647 223.178 46.4963C223.509 46.828 223.674 47.2366 223.674 47.7222C223.674 48.3914 223.361 49.0191 222.735 49.6054C221.814 50.47 220.612 50.9023 219.13 50.9023C217.99 50.9023 217.027 50.6446 216.241 50.1294C215.798 49.8333 215.577 49.5254 215.577 49.2056C215.577 49.0635 215.609 48.9214 215.674 48.7792C215.775 48.5601 215.982 48.2552 216.295 47.8643C216.336 47.811 216.637 47.4912 217.198 46.905C216.891 46.7214 216.673 46.5585 216.543 46.4164C216.419 46.2684 216.357 46.1025 216.357 45.919C216.357 45.7117 216.439 45.4689 216.605 45.1906C216.776 44.9122 217.166 44.5184 217.774 44.0091ZM219.316 39.0259C218.879 39.0259 218.512 39.2005 218.217 39.5499C217.922 39.8993 217.774 40.4353 217.774 41.1577C217.774 42.0934 217.975 42.8188 218.376 43.334C218.684 43.7249 219.073 43.9203 219.546 43.9203C219.995 43.9203 220.364 43.7515 220.653 43.414C220.943 43.0764 221.087 42.5464 221.087 41.824C221.087 40.8824 220.884 40.1451 220.476 39.6121C220.175 39.2213 219.788 39.0259 219.316 39.0259ZM217.685 46.976C217.408 47.278 217.198 47.5593 217.056 47.8199C216.915 48.0805 216.844 48.3203 216.844 48.5394C216.844 48.8237 217.015 49.0724 217.358 49.2856C217.948 49.6527 218.802 49.8363 219.918 49.8363C220.981 49.8363 221.764 49.6468 222.266 49.2678C222.774 48.8947 223.028 48.495 223.028 48.0686C223.028 47.7607 222.877 47.5416 222.576 47.4113C222.269 47.281 221.66 47.204 220.751 47.1803C219.422 47.1448 218.4 47.0767 217.685 46.976Z" fill="url(#paint32_linear)"/>
<path d="M226.04 41.9039C226.034 43.112 226.326 44.0595 226.917 44.7464C227.507 45.4334 228.201 45.7768 228.999 45.7768C229.53 45.7768 229.991 45.6317 230.381 45.3416C230.777 45.0455 231.107 44.5421 231.373 43.8315L231.648 44.0091C231.524 44.8204 231.163 45.5607 230.567 46.2299C229.97 46.8931 229.223 47.2247 228.325 47.2247C227.351 47.2247 226.515 46.8457 225.818 46.0877C225.127 45.3238 224.782 44.2993 224.782 43.0143C224.782 41.6226 225.136 40.5389 225.845 39.7631C226.56 38.9814 227.454 38.5906 228.529 38.5906C229.439 38.5906 230.186 38.8926 230.771 39.4966C231.355 40.0948 231.648 40.8972 231.648 41.9039H226.04ZM226.04 41.3887H229.796C229.767 40.8676 229.705 40.5004 229.61 40.2872C229.462 39.9556 229.241 39.695 228.946 39.5055C228.656 39.316 228.352 39.2213 228.033 39.2213C227.543 39.2213 227.103 39.4137 226.713 39.7987C226.329 40.1777 226.105 40.7077 226.04 41.3887Z" fill="url(#paint33_linear)"/>
<defs>
<linearGradient id="paint0_linear" x1="100.592" y1="31.7779" x2="246.658" y2="31.7779" gradientUnits="userSpaceOnUse">
<stop stop-color="#E8293B"/>
<stop offset="1" stop-color="#012395"/>
</linearGradient>
<linearGradient id="paint1_linear" x1="100.592" y1="31.7779" x2="246.658" y2="31.7779" gradientUnits="userSpaceOnUse">
<stop stop-color="#E8293B"/>
<stop offset="1" stop-color="#012395"/>
</linearGradient>
<linearGradient id="paint2_linear" x1="100.592" y1="31.7779" x2="246.658" y2="31.7779" gradientUnits="userSpaceOnUse">
<stop stop-color="#E8293B"/>
<stop offset="1" stop-color="#012395"/>
</linearGradient>
<linearGradient id="paint3_linear" x1="100.592" y1="31.7779" x2="246.658" y2="31.7779" gradientUnits="userSpaceOnUse">
<stop stop-color="#E8293B"/>
<stop offset="1" stop-color="#012395"/>
</linearGradient>
<linearGradient id="paint4_linear" x1="100.592" y1="31.7779" x2="246.658" y2="31.7779" gradientUnits="userSpaceOnUse">
<stop stop-color="#E8293B"/>
<stop offset="1" stop-color="#012395"/>
</linearGradient>
<linearGradient id="paint5_linear" x1="100.592" y1="31.7779" x2="246.658" y2="31.7779" gradientUnits="userSpaceOnUse">
<stop stop-color="#E8293B"/>
<stop offset="1" stop-color="#012395"/>
</linearGradient>
<linearGradient id="paint6_linear" x1="100.592" y1="31.7779" x2="246.658" y2="31.7779" gradientUnits="userSpaceOnUse">
<stop stop-color="#E8293B"/>
<stop offset="1" stop-color="#012395"/>
</linearGradient>
<linearGradient id="paint7_linear" x1="100.592" y1="31.7779" x2="246.658" y2="31.7779" gradientUnits="userSpaceOnUse">
<stop stop-color="#E8293B"/>
<stop offset="1" stop-color="#012395"/>
</linearGradient>
<linearGradient id="paint8_linear" x1="100.592" y1="31.7779" x2="246.658" y2="31.7779" gradientUnits="userSpaceOnUse">
<stop stop-color="#E8293B"/>
<stop offset="1" stop-color="#012395"/>
</linearGradient>
<linearGradient id="paint9_linear" x1="100.592" y1="31.7779" x2="246.658" y2="31.7779" gradientUnits="userSpaceOnUse">
<stop stop-color="#E8293B"/>
<stop offset="1" stop-color="#012395"/>
</linearGradient>
<linearGradient id="paint10_linear" x1="100.592" y1="31.7779" x2="246.658" y2="31.7779" gradientUnits="userSpaceOnUse">
<stop stop-color="#E8293B"/>
<stop offset="1" stop-color="#012395"/>
</linearGradient>
<linearGradient id="paint11_linear" x1="100.592" y1="31.7779" x2="246.658" y2="31.7779" gradientUnits="userSpaceOnUse">
<stop stop-color="#E8293B"/>
<stop offset="1" stop-color="#012395"/>
</linearGradient>
<linearGradient id="paint12_linear" x1="100.592" y1="31.7779" x2="246.658" y2="31.7779" gradientUnits="userSpaceOnUse">
<stop stop-color="#E8293B"/>
<stop offset="1" stop-color="#012395"/>
</linearGradient>
<linearGradient id="paint13_linear" x1="100.592" y1="31.7779" x2="246.658" y2="31.7779" gradientUnits="userSpaceOnUse">
<stop stop-color="#E8293B"/>
<stop offset="1" stop-color="#012395"/>
</linearGradient>
<linearGradient id="paint14_linear" x1="100.592" y1="31.7779" x2="246.658" y2="31.7779" gradientUnits="userSpaceOnUse">
<stop stop-color="#E8293B"/>
<stop offset="1" stop-color="#012395"/>
</linearGradient>
<linearGradient id="paint15_linear" x1="100.592" y1="31.7779" x2="246.658" y2="31.7779" gradientUnits="userSpaceOnUse">
<stop stop-color="#E8293B"/>
<stop offset="1" stop-color="#012395"/>
</linearGradient>
<linearGradient id="paint16_linear" x1="100.592" y1="31.7779" x2="246.658" y2="31.7779" gradientUnits="userSpaceOnUse">
<stop stop-color="#E8293B"/>
<stop offset="1" stop-color="#012395"/>
</linearGradient>
<linearGradient id="paint17_linear" x1="100.592" y1="31.7779" x2="246.658" y2="31.7779" gradientUnits="userSpaceOnUse">
<stop stop-color="#E8293B"/>
<stop offset="1" stop-color="#012395"/>
</linearGradient>
<linearGradient id="paint18_linear" x1="100.592" y1="31.7779" x2="246.658" y2="31.7779" gradientUnits="userSpaceOnUse">
<stop stop-color="#E8293B"/>
<stop offset="1" stop-color="#012395"/>
</linearGradient>
<linearGradient id="paint19_linear" x1="100.592" y1="31.7779" x2="246.658" y2="31.7779" gradientUnits="userSpaceOnUse">
<stop stop-color="#E8293B"/>
<stop offset="1" stop-color="#012395"/>
</linearGradient>
<linearGradient id="paint20_linear" x1="100.592" y1="31.7779" x2="246.658" y2="31.7779" gradientUnits="userSpaceOnUse">
<stop stop-color="#E8293B"/>
<stop offset="1" stop-color="#012395"/>
</linearGradient>
<linearGradient id="paint21_linear" x1="100.592" y1="31.7779" x2="246.658" y2="31.7779" gradientUnits="userSpaceOnUse">
<stop stop-color="#E8293B"/>
<stop offset="1" stop-color="#012395"/>
</linearGradient>
<linearGradient id="paint22_linear" x1="100.592" y1="31.7779" x2="246.658" y2="31.7779" gradientUnits="userSpaceOnUse">
<stop stop-color="#E8293B"/>
<stop offset="1" stop-color="#012395"/>
</linearGradient>
<linearGradient id="paint23_linear" x1="100.592" y1="31.7779" x2="246.658" y2="31.7779" gradientUnits="userSpaceOnUse">
<stop stop-color="#E8293B"/>
<stop offset="1" stop-color="#012395"/>
</linearGradient>
<linearGradient id="paint24_linear" x1="100.592" y1="31.7779" x2="246.658" y2="31.7779" gradientUnits="userSpaceOnUse">
<stop stop-color="#E8293B"/>
<stop offset="1" stop-color="#012395"/>
</linearGradient>
<linearGradient id="paint25_linear" x1="100.592" y1="31.7779" x2="246.658" y2="31.7779" gradientUnits="userSpaceOnUse">
<stop stop-color="#E8293B"/>
<stop offset="1" stop-color="#012395"/>
</linearGradient>
<linearGradient id="paint26_linear" x1="100.592" y1="31.7779" x2="246.658" y2="31.7779" gradientUnits="userSpaceOnUse">
<stop stop-color="#E8293B"/>
<stop offset="1" stop-color="#012395"/>
</linearGradient>
<linearGradient id="paint27_linear" x1="100.592" y1="31.7779" x2="246.658" y2="31.7779" gradientUnits="userSpaceOnUse">
<stop stop-color="#E8293B"/>
<stop offset="1" stop-color="#012395"/>
</linearGradient>
<linearGradient id="paint28_linear" x1="100.592" y1="31.7779" x2="246.658" y2="31.7779" gradientUnits="userSpaceOnUse">
<stop stop-color="#E8293B"/>
<stop offset="1" stop-color="#012395"/>
</linearGradient>
<linearGradient id="paint29_linear" x1="100.592" y1="31.7779" x2="246.658" y2="31.7779" gradientUnits="userSpaceOnUse">
<stop stop-color="#E8293B"/>
<stop offset="1" stop-color="#012395"/>
</linearGradient>
<linearGradient id="paint30_linear" x1="100.592" y1="31.7779" x2="246.658" y2="31.7779" gradientUnits="userSpaceOnUse">
<stop stop-color="#E8293B"/>
<stop offset="1" stop-color="#012395"/>
</linearGradient>
<linearGradient id="paint31_linear" x1="100.592" y1="31.7779" x2="246.658" y2="31.7779" gradientUnits="userSpaceOnUse">
<stop stop-color="#E8293B"/>
<stop offset="1" stop-color="#012395"/>
</linearGradient>
<linearGradient id="paint32_linear" x1="100.592" y1="31.7779" x2="246.658" y2="31.7779" gradientUnits="userSpaceOnUse">
<stop stop-color="#E8293B"/>
<stop offset="1" stop-color="#012395"/>
</linearGradient>
<linearGradient id="paint33_linear" x1="100.592" y1="31.7779" x2="246.658" y2="31.7779" gradientUnits="userSpaceOnUse">
<stop stop-color="#E8293B"/>
<stop offset="1" stop-color="#012395"/>
</linearGradient>
</defs>
</svg>
