<svg width="21" height="21" viewBox="0 0 21 21" fill="none" xmlns="http://www.w3.org/2000/svg">
<path fill-rule="evenodd" clip-rule="evenodd" d="M0 5.83333C0 2.61217 2.61217 0 5.83333 0H15.1667C18.3878 0 21 2.61217 21 5.83333V15.1667C21 18.3878 18.3878 21 15.1667 21H5.83333C2.61217 21 0 18.3878 0 15.1667V5.83333ZM18.6663 3.50016C18.6663 2.85616 18.1437 2.3335 17.4997 2.3335C16.8557 2.3335 16.333 2.85616 16.333 3.50016C16.333 4.14416 16.8557 4.66683 17.4997 4.66683C18.1437 4.66683 18.6663 4.14416 18.6663 3.50016ZM10.5003 4.66699C13.7215 4.66699 16.3337 7.27916 16.3337 10.5003C16.3337 13.7215 13.7215 16.3337 10.5003 16.3337C7.27916 16.3337 4.66699 13.7215 4.66699 10.5003C4.66699 7.27916 7.27916 4.66699 10.5003 4.66699ZM6.99976 10.4998C6.99976 8.56676 8.56676 6.99976 10.4998 6.99976C12.4328 6.99976 13.9998 8.56676 13.9998 10.4998C13.9998 12.4328 12.4328 13.9998 10.4998 13.9998C8.56676 13.9998 6.99976 12.4328 6.99976 10.4998Z" fill="white"/>
</svg>
