<svg width="93" height="60" viewBox="0 0 93 60" fill="none" xmlns="http://www.w3.org/2000/svg">
<path fill-rule="evenodd" clip-rule="evenodd" d="M16.3563 38.7339C10.2515 54.611 7.63758 59.1782 0 60H22.6903C13.9868 59.4937 8.75115 58.6303 16.3565 38.7339H16.3563Z" fill="white"/>
<path fill-rule="evenodd" clip-rule="evenodd" d="M21.5436 25.3617C25.1383 22.7246 26.4049 25.3513 28.6678 31.2363L36.2866 51.0503C38.3307 56.366 39.929 59.8356 43.9901 59.9998H61.809C54.9737 59.4053 53.0716 56.637 51.1243 51.5724L31.2946 0.00195312L21.5435 25.3616L21.5436 25.3617Z" fill="white"/>
<path fill-rule="evenodd" clip-rule="evenodd" d="M38.4365 12.1049L42.6144 22.9701C44.1653 12.9187 51.4772 1.72786 63.0053 1.76768C73.784 1.80478 81.8091 10.5526 84.1447 19.6966C84.1447 12.4478 84.1447 8.75751 84.1447 1.50865C82.9987 11.5052 74.9116 -0.177341 62.943 0.00204946C50.9743 0.181575 43.0363 6.07196 38.4367 12.1049H38.4365ZM54.4171 53.6694C68.7697 61.2186 82.7878 50.424 84.1513 38.0948C83.8529 51.964 75.1614 58.2023 64.8673 58.9826C59.0373 59.0257 56.109 56.8847 54.4171 53.6696V53.6694Z" fill="#ED2939"/>
<path d="M92.8081 0.00195312H91.1064V59.9998H92.8081V0.00195312Z" fill="#ED2939"/>
</svg>
