<svg width="21" height="18" viewBox="0 0 21 18" fill="none" xmlns="http://www.w3.org/2000/svg">
<path fill-rule="evenodd" clip-rule="evenodd" d="M5.10343 10.4089L0.363353 8.63093C-0.118088 8.44963 -0.122271 7.76656 0.357798 7.5805L19.8112 0.038623C20.2236 -0.121668 20.6491 0.241433 20.5593 0.676686L17.0683 17.5528C16.986 17.9512 16.5211 18.1319 16.193 17.8923L11.4274 14.4151C11.138 14.204 10.7435 14.2153 10.4665 14.4421L7.82435 16.6068C7.51762 16.8588 7.05552 16.7184 6.93813 16.3386L5.10343 10.4089ZM15.906 3.72869L6.64217 9.46271C6.28711 9.68295 6.11993 10.1139 6.23465 10.5173L7.23627 14.0542C7.30738 14.3049 7.66937 14.2792 7.70386 14.0202L7.9643 12.0806C8.0134 11.7154 8.18674 11.379 8.45548 11.1276L16.1009 3.98545C16.2438 3.85218 16.0725 3.62594 15.906 3.72869Z" fill="white"/>
</svg>
